<svg xmlns="http://www.w3.org/2000/svg" xmlns:xlink="http://www.w3.org/1999/xlink" version="1.1" width="612pt" height="792pt" viewBox="0 0 612 792">
<text fill="#404040" xml:space="preserve" transform="matrix(1 0 -0 1 0 792)" font-size="29.7484" font-family="SFBX2986" font-weight="bold"><tspan y="-698.339" x="62.301 79.40633 93.26908 107.78629 123.19596 150.59426 172.45932 184.7454 200.98804 218.09337 227.49387 236.0614 251.47107">SevanBrodjian</tspan></text>
<text fill="#0072bc" xml:space="preserve" transform="matrix(1 0 -0 1 0 792)" font-size="14.3462" font-family="SFBX1440" font-weight="bold"><tspan y="-718.844" x="380.986 392.37687 403.76774 415.1586 419.54853 425.77479 432.94789 440.39356 448.28398 456.60478 465.3703 469.76023 478.52577 485.69886">www.sevanb.net</tspan></text>
<text fill="#404040" xml:space="preserve" transform="matrix(1 0 -0 1 0 792)" font-size="9.9626" font-family="SFRM1000"><tspan y="-703.9" x="380.986 388.179 393.70823 396.4778 400.9012 405.8825 410.8638 415.8451 421.93223 425.52873">Chicago,IL</tspan></text>
<text fill="#0072bc" xml:space="preserve" transform="matrix(1 0 -0 1 0 792)" font-size="9.9626" font-family="SFRM1000"><tspan y="-688.95706" x="380.986 384.91127 389.33467 394.04698 399.02827 404.27854 409.80778 413.7131 418.6944 423.6757 431.4266 436.4079 444.70677 449.68806 452.45765 455.22724 457.99684 462.42024 467.40153">sevanbro7@gmail.com</tspan></text>
<text fill="#0072bc" xml:space="preserve" transform="matrix(1 0 -0 1 0 792)" font-size="9.9626" font-family="SFRM1000"><tspan y="-674.01309" x="380.986 385.9673 388.73689 394.2661 399.2474 403.17268 407.59608 412.30839 417.28968 422.8189 426.1265">/in/sevan-b</tspan></text>
<text fill="#0072bc" xml:space="preserve" transform="matrix(1 0 -0 1 0 792)" font-size="9.9626" font-family="SFBX1000" font-weight="bold"><tspan y="-635.9941" x="54 61.521764 70.17926 78.009868 85.53163 94.11939 98.46309 105.984859 114.951198 123.22015">EXPERIENCE</tspan></text>
<text xml:space="preserve" transform="matrix(1 0 -0 1 0 792)" font-size="11.9552" font-family="SFBX1200" font-weight="bold"><tspan y="-613.5801" x="54 64.14996 75.35199 81.48501 86.97244 93.10546">Ameren</tspan></text>
<text fill="#404040" xml:space="preserve" transform="matrix(1 0 -0 1 0 792)" font-size="8.9664" font-family="SFRM0900"><tspan y="-598.6361" x="54 60.913095 64.23963 71.152729 80.8723 87.650897 91.748538 95.37993 99.47757 104.086299 107.69079 111.53738 119.723697 125.74015 130.34888 133.95337 138.81316 144.43509 147.76163 156.59352 162.21546 166.9497 171.55844 176.67826 183.33132 187.94005 192.54878 197.15752 204.83277 210.9837 217.25122 220.85572 224.95336 228.58475 232.68239 237.54218 244.20421 254.43488 259.0436 263.65235 268.26109 275.94529 282.08726 286.69599 291.30473 295.91346">UIUCResearchPark,IL|Jan.2023-Present&#x0026;2020-2022</tspan></text>
<text xml:space="preserve" transform="matrix(1 0 -0 1 0 792)" font-size="11.9552" font-family="SFBI1200" font-weight="bold" font-style="italic"><tspan y="-583.6931" x="54 64.07823 69.697177 75.31612 81.532817 87.737567 98.09077 108.30051 115.198657 119.69381 131.42186 139.00145 145.20619 149.3666 155.57134 163.15093 167.64609 171.79454 177.41349 186.73853 201.90969 212.11943 219.01758 223.51273 235.24077 242.82036 249.0251 253.17356 259.3783 266.9579 272.48118 283.5158 288.93153 296.5111 301.00627 307.211 313.00929">Assoc.DataScientist&#x0026;DataScienceIntern</tspan></text>
<text fill="#404040" xml:space="preserve" transform="matrix(1 0 -0 1 0 792)" font-size="9.9626" font-family="SFRM1000"><tspan y="-569.3461" x="72.432">&#x2022;</tspan></text>
<text fill="#0072bc" xml:space="preserve" transform="matrix(1 0 -0 1 0 792)" font-size="9.9626" font-family="SFRM1000"><tspan y="-569.3461" x="83.265 90.458 94.36334 98.786739 103.768039 107.643489 110.413089 115.94233">Creating</tspan></text>
<text fill="#404040" xml:space="preserve" transform="matrix(1 0 -0 1 0 792)" font-size="9.9626" font-family="SFRM1000"><tspan y="-569.3461" x="124.46035 132.97838 141.27722 144.04683 148.47023 152.37557 157.35686 160.40541 165.3867 169.29204 173.71544 178.13884 183.12014 187.0454 190.92086 193.69046 199.2197 207.74768 213.27692 217.18225 222.43254 226.85594 231.27935 235.2046 242.67656 248.2058 252.13106 254.90067 260.4299 268.9479 274.47715 277.24674 281.172 285.04747 288.9528 291.72239 297.25163 302.78086 306.6563 311.0797 320.14567 325.6749 328.4445 332.8679 336.77323 341.75453 345.65986 349.8043 355.33354 358.10313">amicroforecastingprocessusingdistributedhierarchi-</tspan><tspan y="-555.0001" x="83.265 87.68839 92.66969 98.97601 102.901279 108.43052 111.20012 116.46037 119.22997 124.75922 133.2872 138.81644 143.23984 148.76908 152.67441 157.6557 163.96204 169.49127 173.91468 177.51119 184.42523 189.40653 193.31186 202.1188 206.5422 209.31182 214.84105 218.76631 222.64177 227.06517 230.9705 238.4325 246.73134 251.99158 257.5208 261.9442 264.7138 269.1372 278.20317 283.18446 286.233 290.10847 294.53187 301.9739 305.84938 311.3786 319.3487 324.87794 329.30134 334.5516 338.975 343.9563 347.86164 351.7371 356.1605">calspikingneuralnetworkclustersmodeledaftertheneocortex</tspan><tspan y="-540.6541" x="83.265 87.14045 95.43929 100.42059 104.345859 108.27112 111.04072 114.96598 122.16894 124.93854 133.78533 138.76662 142.67195 145.44156 154.28835 159.81758 162.58719 167.56848 173.09772 178.62696 181.39656 186.9258 195.22464 200.20594 205.73517 214.59192 218.49726 222.92066 225.69026 228.45987 233.44116 238.9704 241.74 244.50962 247.27922 250.87574">toassistingridplanningandreliability</tspan></text>
<text fill="#404040" xml:space="preserve" transform="matrix(1 0 -0 1 0 792)" font-size="9.9626" font-family="SFRM1000"><tspan y="-526.3081" x="72.432">&#x2022;</tspan></text>
<text fill="#0072bc" xml:space="preserve" transform="matrix(1 0 -0 1 0 792)" font-size="9.9626" font-family="SFRM1000"><tspan y="-526.3081" x="83.265 86.861499 92.39074 97.91998 102.343379 108.15157 112.57497 118.10421 123.63345 128.05686 133.30715 137.1826 139.95221 147.733 150.50261 154.92601 159.9073">Independentlylead</tspan></text>
<text fill="#404040" xml:space="preserve" transform="matrix(1 0 -0 1 0 792)" font-size="9.9626" font-family="SFRM1000"><tspan y="-526.3081" x="167.94712 175.44895 180.97818 183.74779 188.72908 194.25832 197.57587 203.3741 207.7975 211.70284 214.75139 219.73268 223.63802 231.93686 234.70647 240.2357 247.73754 253.26677 258.24809 262.12355 269.61543 273.54069 277.96409 280.73368 285.15708 290.6863 295.1097 302.05366 305.95899 310.3824 314.30766 318.73106 323.71235 327.61769 331.76213 339.8119 343.68736 348.11076 353.09205">ahigh-performingdatascienceresearchteam</tspan><tspan y="-511.9621" x="83.265 86.0346 95.10056 100.62981 105.0532 110.044467 114.46786 117.23746 122.21876 127.748 130.51761 136.04685 144.56487 148.98827 154.5175 160.04674 163.36429 167.23975 172.22104 175.53859 179.96199 185.49123 194.55719 203.68294 213.44629 218.97553 221.74514 227.55332 231.97672 234.74633 237.51593 243.04517 247.46857 254.94052 260.46977 264.39503 267.1646 272.69386 281.21186 287.98643 293.24668 297.12214 302.65138 307.63267 313.1619 319.52799 325.05723 332.80815 339.03477 345.34107 350.32237 355.8516">indevelopingend-to-endMLpipelinesusingPython,SQL,and</tspan><tspan y="-497.6161" x="83.265 87.68839 90.45799 95.43929 100.96854 109.26738 113.14283 118.40308 123.384387 126.153987 132.84886 135.89742 140.87871 147.55365 150.6022 155.5835 159.48883 163.91223 168.33563 173.31693 177.24219 181.11765 183.88726 189.41649 197.17736 202.14868 207.68788 215.98673 220.41013 223.17974 228.16103 232.08629 236.01155 238.78116 241.54578 244.3104 248.7338 253.71509 257.59056 260.36015 265.34144 273.64027 278.89054 286.92039 295.21925 300.20054 305.72978 310.71107 315.69236 318.46195 323.99119 331.75205 334.52165 339.7719 343.64738 348.07078 351.9761 357.50535">cloudtoolsforforecastingandclassificationbymanaginginterns</tspan><tspan y="-483.27009" x="83.265 87.17034 92.15164 97.680889 102.662189 105.431789 110.96103 119.25987 122.308429 126.21377 131.19507 142.81147 148.3407 153.86994 159.39917 163.83254 167.73787 172.7092 176.61454 181.59583 187.12506 192.6543 197.63559 201.51105 209.26197 213.13742 221.43627 228.21083 233.74007">rangingfromundergraduatetoPhD</tspan></text>
<text fill="#404040" xml:space="preserve" transform="matrix(1 0 -0 1 0 792)" font-size="9.9626" font-family="SFRM1000"><tspan y="-468.92408" x="72.432">&#x2022;</tspan></text>
<text fill="#0072bc" xml:space="preserve" transform="matrix(1 0 -0 1 0 792)" font-size="9.9626" font-family="SFRM1000"><tspan y="-468.92408" x="83.265 90.87643 95.29982 100.28112 104.70451 107.47411 112.455417 118.26361 122.687007">Developed</tspan></text>
<text fill="#404040" xml:space="preserve" transform="matrix(1 0 -0 1 0 792)" font-size="9.9626" font-family="SFRM1000"><tspan y="-468.92408" x="131.86257 140.50014 146.02938 148.79898 153.78028 159.30951 162.62706 167.60836 172.03176 176.45516 181.98439 185.88973 190.87102 195.29442 204.20099 211.81241 216.23581 220.65921 229.83477 235.364 240.89324 244.79857 250.05883 252.82843 257.54075 262.52204 268.93794 276.40989 281.93913 286.9204 289.69 294.95027 298.87553 301.6451 309.22666 316.55915 324.0311 335.14936 343.4482 348.70848 354.2377 358.6611">ahigh-accuracyDeepSurvivalAnalysisRNNmodel</tspan><tspan y="-454.57807" x="83.265 88.79424 92.699588 97.12298 102.65222 105.42182 109.845218 113.720668 116.490268 122.01951 131.78285 136.20626 144.5051 150.03433 152.80394 157.51624 162.49755 166.92095 176.12639 181.10768 184.98314 188.8586 192.76393 195.53354 199.409 202.1786 207.1599 212.68914 220.6094 224.51474 228.93814 232.8634 238.39264 241.16225 245.0377 247.80731 253.33655 263.09989 265.86949 276.18077 285.9441 290.92539 295.90669 300.88798 313.96888 316.73847 322.2677 326.6911 330.59645 335.01985 340.00114 343.9264 353.1418 355.9114">predictingemployeeattrition,resultingina312%increasein</tspan><tspan y="-440.23109" x="83.265 89.0732 93.49659 97.40193 100.450489 105.431789 109.33713 117.63597 122.61727 128.14652 132.56992 140.31087 145.29216 150.8214 159.66819 164.09159 169.07288 174.60211 178.47757 184.0068 187.91214 190.68175 196.21099 204.51979 209.50109 212.27069 217.25199 222.23328 230.53212 238.83097 241.60057 245.52584 249.4511 253.8745 262.72129 266.62663 271.05003 274.92549 277.69508 281.6004 286.0238 294.32267 298.74607 304.00633 307.88179 315.12458 320.93278 325.35618 332.57905 337.56034 341.98374 346.96504">performanceandcapturing1,255missedretirementsperyear</tspan></text>
<text fill="#404040" xml:space="preserve" transform="matrix(1 0 -0 1 0 792)" font-size="9.9626" font-family="SFRM1000"><tspan y="-425.88508" x="72.432">&#x2022;</tspan></text>
<text fill="#0072bc" xml:space="preserve" transform="matrix(1 0 -0 1 0 792)" font-size="9.9626" font-family="SFRM1000"><tspan y="-425.88508" x="83.265 88.79424 94.60244 99.02583 104.00713 107.912479 113.44172 117.86511 122.84641 128.37566 132.79906">Spearheaded</tspan></text>
<text fill="#404040" xml:space="preserve" transform="matrix(1 0 -0 1 0 792)" font-size="9.9626" font-family="SFRM1000"><tspan y="-425.88508" x="141.43663 145.31209 150.84133 158.38303 163.91226 168.33567 173.31697 177.74037 180.50998 185.49127 191.02051 199.31935 203.74275 208.99304 215.98679 220.96808 227.12497 231.00043 236.52967 244.0614 249.59064 254.57193 260.10118 265.36143 270.89067 275.04508 280.5743 284.47966 289.46095 294.7112 303.0798 309.85438 315.11463 318.99009 324.51933 329.5006 338.13819 343.66743 348.6487 352.80314 358.0634">thedevelopmentoftheS3SynchronyPythonpack-</tspan><tspan y="-411.53907" x="83.265 88.2463 93.2276 100.35086 107.54386 113.073108 115.842708 119.987148 128.21625 133.74549 137.65082 142.35317 147.61342 150.38303 155.91226 160.33567 166.96079 171.94208 177.47132 181.34677 186.32807 194.6269 199.6082 203.48366 206.25327 213.37653 218.35784 222.78124 226.68657 230.61183 233.38144 238.36273 243.89197 246.66158 252.19081 259.87199 262.92054 267.89189 274.49708 280.8632 291.10475 299.33384 304.86308 312.54423 319.7372 322.5068 326.38227 334.6014 338.75584 344.28507 348.70848 352.8529 358.11317">agewhichprovidesautomaticversioningforAWSS3withcheck-</tspan><tspan y="-397.19306" x="83.265 87.19026 92.719509 101.01835 108.00213 112.98343 118.51267 127.10043 130.97589 136.50513 143.98705 149.79523 154.77652 158.65198 163.63327 171.67308 174.44269 177.2123 182.74153 186.64687 191.62816 195.5335 203.85227 208.27567 213.8049 218.7862 224.31543 227.08504 229.85465 235.38388 243.42369 247.29915 252.82839 260.3103 265.2916 269.19694 274.17823 279.70747 285.2367 288.0063 294.99009 298.03865 303.56788 306.33747 312.1656 317.14689 322.67613 327.6574 333.18666 337.0621 339.8317 344.813 353.40077 358.38206">sumsandtheboto3libraryenablingthegroup&#x2019;sfulladoptionof</tspan><tspan y="-382.84706" x="83.265 88.79424 97.09309 100.14164 105.12294 112.345829 117.87507 122.85637 126.73182 135.04064 138.9659 142.84136 147.82265 151.72798 156.70928 161.69057">S3fordatastorage</tspan></text>
<text xml:space="preserve" transform="matrix(1 0 -0 1 0 792)" font-size="11.9552" font-family="SFBX1200" font-weight="bold"><tspan y="-353.55705" x="54 63.56416 70.10365 77.57565 89.16024 95.87907 104.47485 114.62482 125.82684 131.95986 137.4473 141.17733 147.15493">BankofAmerica</tspan></text>
<text fill="#404040" xml:space="preserve" transform="matrix(1 0 -0 1 0 792)" font-size="8.9664" font-family="SFRM0900"><tspan y="-338.61305" x="54 60.65307 65.77288 68.32831 72.42595 77.034679 81.6434 86.25213 91.87406 95.2006 104.03251 109.663417 118.109767 122.458469 130.39373 134.99349 139.60222 144.21096 151.89516 159.5704 166.4835 171.60332 176.21205 182.86511 187.47385 192.08258 196.69132">Chicago,IL|May2022&#x2013;Aug.2022</tspan></text>
<text xml:space="preserve" transform="matrix(1 0 -0 1 0 792)" font-size="11.9552" font-family="SFBI1200" font-weight="bold" font-style="italic"><tspan y="-323.66905" x="54 63.63589 70.18734 75.71064 81.91539 87.71366 93.3326 98.84395 105.0487 112.28159 118.079868 122.22832 126.72347 138.11678 147.84832 155.4279 162.32605 165.79306 172.34452 177.96346">CybersecurityAnalyst</tspan></text>
<text fill="#404040" xml:space="preserve" transform="matrix(1 0 -0 1 0 792)" font-size="9.9626" font-family="SFRM1000"><tspan y="-309.32304" x="72.432">&#x2022;</tspan></text>
<text fill="#0072bc" xml:space="preserve" transform="matrix(1 0 -0 1 0 792)" font-size="9.9626" font-family="SFRM1000"><tspan y="-309.32304" x="83.265 90.458 95.4393 100.968547 106.49779 112.02703 116.450428 120.325878 124.74927">Conducted</tspan></text>
<text fill="#404040" xml:space="preserve" transform="matrix(1 0 -0 1 0 792)" font-size="9.9626" font-family="SFRM1000"><tspan y="-309.32304" x="134.82144 137.59105 143.12029 146.43784 151.96707 156.39048 161.91971 165.79517 175.85739 179.76273 184.18613 188.11139 192.54476 197.51609 201.42142 205.57582 215.63805 220.61934 230.69152 234.61678 239.04018 243.46358 248.99282 252.89815 255.66776 259.26426 269.06745 272.97279 275.74238 279.66764 284.9279 293.38615 298.36744 302.2927 306.21797 311.4782 315.9016 318.6712 323.6525 327.52796 331.95137 342.02354 349.21653 351.9861 355.86158">in-depthresearchonsecurityrisksassociatedwith</tspan><tspan y="-294.97703" x="83.265 87.96735 92.94865 96.85399 99.62359 104.60489 110.13413 118.46287 122.88626 127.86756 131.7729 137.58109 142.56238 146.46772 151.449 155.32447 164.14138 169.67061 173.57595 178.83618 184.36542 189.89466 194.31806 198.19351 206.51229 211.49358 217.02281 226.95552 230.88079 235.30419 239.20952 244.46977 247.23938 251.66278 256.08619 260.01145 267.44355 271.86695 277.39619 282.37748 287.9067 290.6763 293.4459 298.97514 308.3599 312.23536 317.7646 326.58149 330.45695 334.88035 339.86164 352.56398 356.43943">variouscorporateproductsandservices,enablingtheteamto</tspan><tspan y="-280.631" x="83.265 87.68839 92.39074 97.37204 100.14164 105.67088 110.65218 114.52763 122.278537 126.153987 131.68323 135.58856 140.01197 147.75292 151.62837 154.39798 162.69683 167.12023 174.36304 182.66188 187.64318 191.54851 199.29943 203.22469 207.64809 211.55342 216.81368 219.58329 224.00669 228.43009 235.6729 241.48108 245.90448 253.12737 260.0414 264.4648 268.8882">evaluatethreetimesmoreservicesperweek</tspan></text>
<text fill="#404040" xml:space="preserve" transform="matrix(1 0 -0 1 0 792)" font-size="9.9626" font-family="SFRM1000"><tspan y="-266.285" x="72.432">&#x2022;</tspan></text>
<text fill="#0072bc" xml:space="preserve" transform="matrix(1 0 -0 1 0 792)" font-size="9.9626" font-family="SFRM1000"><tspan y="-266.285" x="83.265 90.87643 95.29982 103.59866 108.57996 114.10921 118.03447 121.90992 125.81526 130.79656 134.67201 139.09542">Demonstrated</tspan></text>
<text fill="#404040" xml:space="preserve" transform="matrix(1 0 -0 1 0 792)" font-size="9.9626" font-family="SFRM1000"><tspan y="-266.285" x="147.61344 153.14267 157.048 162.0293 166.4527 170.32816 173.09777 177.52117 182.50246 188.25089 192.67429 197.93454 203.74272 208.16613 212.07146 215.94692 218.71652 222.64179 230.05397 232.82358 241.3416 245.765 251.02526 256.8235 261.2469 265.15223 269.07749 273.5009 277.9243 283.45353 287.35887 290.12846 293.73493 301.974 307.22428 315.4733 321.00254 325.98384 329.88917 333.76463 336.5342 340.9576 343.7272 349.25645 354.23774 358.1132">practicalexpertiseincybersecuritybyparticipat-</tspan><tspan y="-251.93901" x="83.265 86.0346 91.56384 99.862689 102.632289 111.48904 115.4143 118.1839 126.20379 131.73303 134.50264 139.48394 143.35939 147.78279 156.62958 162.43776 166.86116 172.11145 175.98691 180.41031 184.33557 188.21103 190.98064 196.50988 204.81868 209.24208 214.50234 218.92574 222.83107 227.25447 230.02408 233.94934 238.37274 245.61556 250.59685 259.44364 267.75245 275.50337 280.4747 283.25425 289.34138 295.568 298.3376 303.58787 309.1171 317.6949 321.62016 326.04356 329.919 335.44825">inginsimulatedpentestingexercisesonaKaliLinuxsetup</tspan></text>
<text xml:space="preserve" transform="matrix(1 0 -0 1 0 792)" font-size="11.9552" font-family="SFBX1200" font-weight="bold"><tspan y="-222.64801" x="54 59.009229 68.71685 78.81899 88.8494 96.93112 107.081089 121.12845 128.60045 134.73346 145.93549 149.66551 155.64311 162.36194 169.83394 177.30594 184.77794 190.75554 195.97997 202.69879 212.66944 220.75115 227.29064 235.13324 241.85207 247.33951 253.879 259.10343 265.82225 271.30967">ICORLABSemiconductorLaboratory</tspan></text>
<text fill="#404040" xml:space="preserve" transform="matrix(1 0 -0 1 0 792)" font-size="8.9664" font-family="SFRM0900"><tspan y="-207.70502" x="54 60.65307 65.77288 70.38161 78.05685 83.17666 87.785388 90.34081 94.94954 100.06935 105.70026 109.026798 117.84973 123.48064 128.72599 132.82363 137.94344 144.5965 149.20523 153.81397 158.4227 166.09795 173.7732 180.6863 185.81508 190.41484 197.0679 201.67664 206.28537 210.8941">Champaign,IL|Feb.2020&#x2013;Aug.2021</tspan></text>
<text xml:space="preserve" transform="matrix(1 0 -0 1 0 792)" font-size="11.9552" font-family="SFBI1200" font-weight="bold" font-style="italic"><tspan y="-192.76102" x="54 64.25756 71.83716 78.735309 84.940059 90.05688 96.26163 101.36649 108.26464 115.16279 122.39568 129.29384 133.789 144.8356 154.10088 160.30562 165.92456 171.44786 178.34601 183.46285 189.66759 196.56574 202.77048">UndergraduateResearcher</tspan></text>
<text fill="#404040" xml:space="preserve" transform="matrix(1 0 -0 1 0 792)" font-size="9.9626" font-family="SFRM1000"><tspan y="-177.81702" x="54 59.529245 62.298849 70.31874 75.847988 78.617588 83.598888 87.474338 90.243938 95.225238 104.081989 109.063289 115.42938 125.67094 128.44054 133.96977 138.39318 141.71073 147.23996 152.22126 157.75049 163.27973 168.26102 173.24231 182.0891 188.86367 191.63327 196.05667 200.48007 204.35553 208.26087 213.24216 218.7714 221.541 225.9644 233.21718 235.98679 242.07395 248.84851 252.445 258.53218 265.30674 269.21208 274.19337 277.2419 284.4349 291.6279 296.6092 305.46595 312.51948 317.2218 322.48207 326.3874 331.36869">SimulationofWide-bandgapElectronics||PI:Prof.CanBayram</tspan></text>
<text fill="#404040" xml:space="preserve" transform="matrix(1 0 -0 1 0 792)" font-size="9.9626" font-family="SFRM1000"><tspan y="-163.47103" x="72.432">&#x2022;</tspan></text>
<text fill="#0072bc" xml:space="preserve" transform="matrix(1 0 -0 1 0 792)" font-size="9.9626" font-family="SFRM1000"><tspan y="-163.47103" x="83.265 90.87643 95.29982 99.22508 101.99468 106.97598 112.505229 116.92862">Designed</tspan></text>
<text fill="#404040" xml:space="preserve" transform="matrix(1 0 -0 1 0 792)" font-size="9.9626" font-family="SFRM1000"><tspan y="-163.47103" x="125.347019 130.87625 135.5786 140.5599 144.9833 150.64208 158.94092 161.71053 166.13393 170.03926 175.2995 179.7229 182.49251 186.91591 191.33931 195.21477 199.1201 204.1014 209.63063 212.40024 219.7128 225.52098 230.22333 237.13738 241.56078 248.35527 253.8845 258.3079 263.56816 266.33775 270.76115 275.18455 281.99897 286.42237 291.40367 299.7025 305.5107 310.492 314.41728 318.84068 327.24909 332.23039 338.1681 345.36109 348.13069 353.6599 358.0833">novelmicroelectronicpowerdevicescomposedofwide-</tspan><tspan y="-149.12503" x="83.265 88.79424 93.77554 99.30479 104.83403 109.81533 114.79663 123.44417 131.74301 136.7243 140.59976 145.02317 148.9285 151.6981 156.6794 159.449 163.37427 169.30202 172.07163 177.60086 182.03423 184.80384 190.33307 195.8623 198.63191 204.16115 212.26074 220.08139 225.06269 235.65293 243.12488 249.89945 262.14347 266.01893 269.92427 274.90556 280.43479 284.36006 287.12965 291.0549 294.93037 299.91166 303.817 310.86054 321.73973 329.35115 332.12074 337.10203 345.40089 350.38218 355.9114">bandgapmaterials,includingGaNHEMtransistors&#x0026;Diamond</tspan><tspan y="-134.77803" x="83.265 90.039569 92.809169 103.598659 111.21008 113.97968 119.23994 124.76918 129.19258 133.11785 139.205 144.73424 148.6595 151.42911 156.9683 165.26715 170.79639 176.05664 181.58588 186.56717 192.0964 196.02167 201.28192 208.52474 214.05397 218.47737 223.72766 227.60312 232.58441 238.11365 242.01898 247.54822 254.801 258.67646 266.97529 271.95658 276.37998 281.9092 286.3326 290.23796 295.21925 299.0947 306.83564 315.1345 319.5579 323.48316 332.3399 335.10453 337.86915 340.63874 345.06214">PiNDiodes,usingSynopsysSentaurustogeneratemeshfiles</tspan></text>
<text fill="#404040" xml:space="preserve" transform="matrix(1 0 -0 1 0 792)" font-size="9.9626" font-family="SFRM1000"><tspan y="-120.43203" x="72.432">&#x2022;</tspan></text>
<text fill="#0072bc" xml:space="preserve" transform="matrix(1 0 -0 1 0 792)" font-size="9.9626" font-family="SFRM1000"><tspan y="-120.43203" x="83.265 88.79424 91.56384 99.58373 105.112979 107.882579 112.86388 116.73933 121.16272">Simulated</tspan></text>
<text fill="#404040" xml:space="preserve" transform="matrix(1 0 -0 1 0 792)" font-size="9.9626" font-family="SFRM1000"><tspan y="-120.43203" x="131.53379 135.95719 138.72679 143.15019 147.5736 151.44905 155.35439 158.124 162.5474 167.52869 175.14012 180.66936 185.09276 190.35301 193.12262 197.54602 206.81125 210.9557 216.48494 221.46623 225.37157 230.35286 234.77626 238.65172 243.07512 246.98046 249.75006 253.67533 257.55079 260.32038 264.74378 273.51087 278.76115 288.86323 296.0562 299.96156 302.73115 306.6066 309.3762 314.90544 324.71858 330.9452 333.71479 337.64006 343.16929 346.48683 349.2564 352.026 357.01728">electricaldevicecharacteristicsbywritingLisp-like</tspan><tspan y="-106.08603" x="83.265 88.79424 93.217639 98.467929 102.343379 107.32468 112.85392 116.75926 122.288509 129.54128 137.1527 141.5761 146.83635 149.60596 154.02936 161.77031 168.9633 176.1563 183.62825 194.55722 198.48249 202.90589 206.81122 209.58083 215.11006 218.98552 226.2383 230.11376 238.4126 243.39389 248.92313 253.90442 256.674 261.93428 266.35768 274.0986 278.522 281.2883 284.0546 286.82087 291.24427 296.22557 300.64897 309.23674 314.20808 320.58415 326.11338 330.53678 334.46205 337.23164 342.21293 347.74217">SentaurusDeviceTCADscriptstoanalyzeefficacyofdesigns</tspan></text>
<text fill="#404040" xml:space="preserve" transform="matrix(1 0 -0 1 0 792)" font-size="9.9626" font-family="SFRM1000"><tspan y="-91.74003" x="72.432">&#x2022;</tspan></text>
<text fill="#0072bc" xml:space="preserve" transform="matrix(1 0 -0 1 0 792)" font-size="9.9626" font-family="SFRM1000"><tspan y="-91.74003" x="83.265 89.49162 93.915019">Led</tspan></text>
<text fill="#404040" xml:space="preserve" transform="matrix(1 0 -0 1 0 792)" font-size="9.9626" font-family="SFRM1000"><tspan y="-91.74003" x="103.09057 106.96602 112.49526 120.564968 126.09421 130.51761 135.49892 139.92232 142.69193 147.67322 153.20246 161.5013 165.9247 171.17499 178.69676 183.67806 190.37293 199.00054 204.26079 207.0304 210.95566 216.4849 221.46619 227.88211 232.8634 238.39264 247.56819 251.44365 260.0613 265.0426 270.57185 274.4473 277.2169 285.51576 288.28535 292.70875 300.77845 304.6539 310.18315 318.25285 326.5517 331.533 336.79325 339.56285 347.58274 353.11198">thedevelopmentofavisualapptooptimizethemaximum</tspan><tspan y="-77.39403" x="83.265 88.51529 94.04453 102.07439 107.87262 112.29601 119.39935 124.38065 130.6272 136.15644 138.92604 143.34944 150.4727 155.454 164.18123 172.36052 179.27457 184.25586 187.30442 191.72782 198.83115 202.7066 208.23584 212.14118 217.12247 222.6517 227.633 236.36023 244.52956 250.05879 253.96413 258.94544 264.47468 268.38 271.1496 275.573 279.44847 284.42976 288.33509 296.79335 301.77464 304.54423 309.5255 314.5068 318.41215 321.18174 325.0572 330.58644 342.08329 349.27629 352.04588 355.92134">numberofdiesonawaferthroughaproprietaryalgorithmwith</tspan><tspan y="-63.048028" x="83.265 88.2463 93.77554 98.47789 103.45919 108.988437 113.41183 117.83522 126.69197 129.74053 134.16393 139.14522 143.02068 148.54991 152.45525 156.87865 164.12146 169.6507 174.63199 181.825 187.35424 192.88347 198.4127 201.18231 203.95192 208.37532 211.14493 219.7327 222.5023 230.80115 236.33039 239.09999 243.52339 251.82224 256.24565 261.4959 265.37138 269.79478 278.64155 283.06495 285.83454 289.76976 294.19316 301.38615 306.91539 311.33879 315.2441">advancedfeaturesnotpubliclyimplementedelsewhere</tspan></text>
<text fill="#0072bc" xml:space="preserve" transform="matrix(1 0 -0 1 0 792)" font-size="9.9626" font-family="SFBX1000" font-weight="bold"><tspan y="-635.99508" x="380.98603 388.50779 397.2948 406.1117 414.38066 422.08174 430.05183 434.3955 443.0032">EDUCATION</tspan></text>
<text xml:space="preserve" transform="matrix(1 0 -0 1 0 792)" font-size="11.9552" font-family="SFBX1200" font-weight="bold"><tspan y="-613.58108" x="380.98603 391.3153 398.7873 402.5173 409.24809 415.3811 420.86854 426.17665 429.90666 434.76048 446.34507 453.0519 461.6477 466.65693 470.38694 474.11695 477.84696 485.31898 492.03779 495.7678">UniversityofIllinois</tspan></text>
<text xml:space="preserve" transform="matrix(1 0 -0 1 0 792)" font-size="11.9552" font-family="SFBX1200" font-weight="bold"><tspan y="-598.6371" x="380.98603 391.3153 396.80274 404.27473 410.8142 418.2862 424.82569 429.3089 439.0165 446.48854 453.028 464.23005 471.70204 478.24153 481.97154 488.69035">Urbana-Champaign</tspan></text>
<text fill="#404040" xml:space="preserve" transform="matrix(1 0 -0 1 0 792)" font-size="9.9626" font-family="SFRM1000"><tspan y="-583.6931" x="380.98603 388.03956 390.80915 396.33839 402.4255 405.1951 414.05186 421.24485 426.22615 434.525 440.05424 445.58348 449.45893 453.88233 461.1052 467.87977 473.409 478.3903 481.15989 486.68913 491.11253 495.53593 499.44126 502.21086 507.74009">B.S.inComputerEngineering</tspan></text>
<text fill="#404040" xml:space="preserve" transform="matrix(1 0 -0 1 0 792)" font-size="9.9626" font-family="SFBX1000" font-weight="bold"><tspan y="-568.74917" x="380.98603 389.99223 396.8664 405.5239 412.52763 418.2561 421.42424 427.1527 432.8812 438.60969 444.33818 447.51625 453.24473">GPA:3.98/4.00</tspan></text>
<text fill="#404040" xml:space="preserve" transform="matrix(1 0 -0 1 0 792)" font-size="9.9626" font-family="SFRM1000"><tspan y="-568.74917" x="458.98005 465.06718 472.6786 477.102 481.5254 485.9488 493.97868 499.7769 504.21025 511.4331 516.4144 521.39578 526.3771">,December2022</tspan><tspan y="-553.8052" x="380.98603 388.45799 391.22758 396.20887 404.06935 411.5413 416.52259 422.05183 427.0331 430.93846 434.8637 440.1638 447.35679 452.33808 460.63694 466.16618 471.6954 477.96189 485.43385 490.41514 495.94438 500.92567 504.831 508.75627 514.05636 521.6678 526.0912 531.0725 536.60177 539.37136 545.62789 551.8545 554.6241 558.5494">HighHonors,CampusHonors,Dean&#x2019;sList</tspan><tspan y="-526.9062" x="380.98603 388.17903 393.1603 398.1416 403.67085 406.44044 410.3159 413.08549 418.06678 430.82887 438.3008 442.7242 448.25346 452.15879 457.14009 461.06535 465.48875 468.25834 472.69169 478.22093 482.64433 487.06773 499.4313 506.90327 509.67286 513.26937 516.03897 528.4025 535.87448 541.4037 546.9329 549.7025 552.4721 556.8955">CognitiveNeuroscience,A.I.,Applied</tspan><tspan y="-514.9512" x="380.98603 390.11177 396.33839 403.38194 410.57493 415.5562 418.3258 422.7492 428.27845 431.04804 436.57728 444.7765 448.65196 452.5274 456.1239 463.16746 470.77888 473.54847 476.45256 479.35667 483.78007 487.6854 492.1088 497.35908 501.23454 504.00413 508.9854 516.02896 522.8035 528.0638 533.593 538.57437 542.44979 545.21939 550.2007 555.7299 559.6552">ML,CalculusIII,DifferentialEquations,</tspan><tspan y="-502.9962" x="380.98603 387.21266 389.98225 395.51148 399.93489 404.91618 415.83518 423.30714 426.07673 431.058 435.4814 441.01066 444.916 449.89729 460.60707 468.21849 470.98808 474.91334 479.33674 483.24208 487.66548 491.54093 502.978 512.10379 517.0851 520.9605 526.48977 530.41506 541.1248 548.59677 554.126 559.1073">LinearAlgebra,DiscreteMaths,Ana-</tspan><tspan y="-491.0402" x="380.98603 383.7556 388.7369 397.94236 403.4716 406.24119 411.22248 416.7517 421.733 428.72676 435.5013 439.40666 444.6669 449.0903 453.5137 457.43898 461.36424 464.13383 469.66307 474.64436 481.86723 489.61814 495.14738 500.12867 505.37895 509.2544 514.7836 527.3066 534.0812 539.3315 544.59176 548.517 551.2866 555.71 559.6353">logSignalProcessing,QuantumPhysics,</tspan><tspan y="-479.0852" x="380.98603 388.59745 393.57875 397.4542 405.08555 410.61479 414.49024 418.39558 423.9248 428.3482 432.22367 437.7529 441.65824 446.08164 450.0069 455.55607 461.0853 465.5087 473.80757 476.57716 481.00056 485.98185 491.51109 497.0403 502.56956 506.99296 510.8684 515.84976 522.4051 529.1797 531.9493 536.3727 540.7961 544.6715 548.57687 553.55819 559.0874">DataStructures,SemiconductorElectron-</tspan><tspan y="-467.13023" x="380.98603 383.7556 388.17903 392.10429 398.1914 405.66337 408.43296 413.41426 418.39555 422.30088 425.07048 428.94593 434.47517 442.77403 446.69929 452.7964 459.57096 463.4763 468.45759 473.98683 478.9681 484.49736 487.26695 490.03654 492.80613 496.40263">ics,Algorithms,Probability</tspan></text>
<text fill="#0072bc" xml:space="preserve" transform="matrix(1 0 -0 1 0 792)" font-size="9.9626" font-family="SFBX1000" font-weight="bold"><tspan y="-435.2502" x="380.98603 388.36833 398.94859 407.60609 416.19386 424.98088 435.16264 447.88487 456.8512 465.4589 474.42524 483.03294 491.6207">AWARDS&#x0026;HONORS</tspan></text>
<text fill="#404040" xml:space="preserve" transform="matrix(1 0 -0 1 0 792)" font-size="9.9626" font-family="SFRM1000"><tspan y="-415.4392" x="380.98603 388.59745 393.57875 399.10798 404.91618 409.33958 413.2449 418.77415 424.30339 429.8326 435.91975 441.44898 445.32444 450.85368 456.3829 460.8063 466.06657 473.25956 479.89466 486.81867 491.79997 495.7053 542.4797 547.461 552.4423 557.42367">DobberpuhlStudentAward2022</tspan></text>
<text xml:space="preserve" transform="matrix(1 0 -0 1 0 792)" font-size="9.9626" font-family="SFTI1000" font-style="italic"><tspan y="-405.03523" x="380.98603 386.0769 391.1678 394.22633 399.3172 404.40809">$2,000</tspan></text>
<text fill="#404040" xml:space="preserve" transform="matrix(1 0 -0 1 0 792)" font-size="9.9626" font-family="SFRM1000"><tspan y="-389.2632" x="380.98603 388.17903 395.65098 405.74308 413.07557 417.49897 421.42424 425.85758 430.82893 434.73426 438.88868 447.73545 453.26469 458.7939 464.32316 470.13136 475.11265 479.01799 486.21098 494.03163 497.93696 502.91825 508.16853 542.4896 547.47097 552.4523 557.4336">CHPResearchSupportGrant2021</tspan></text>
<text xml:space="preserve" transform="matrix(1 0 -0 1 0 792)" font-size="9.9626" font-family="SFTI1000" font-style="italic"><tspan y="-378.86024" x="380.98603 386.0769 391.1678 394.22633 399.3172 404.40809">$2,000</tspan></text>
<text fill="#404040" xml:space="preserve" transform="matrix(1 0 -0 1 0 792)" font-size="9.9626" font-family="SFRM1000"><tspan y="-363.08824" x="380.98603 388.17903 393.70826 398.68955 403.67085 409.75798 416.8115 421.2349 427.332 433.68815 437.6134 445.36433 456.43278 465.5585 470.26084 478.83863 485.48368 492.3977 497.379 501.28434 542.5096 547.4909 552.4722 557.45358">Chao,BeiTse&#x0026;MayAward2020</tspan></text>
<text xml:space="preserve" transform="matrix(1 0 -0 1 0 792)" font-size="9.9626" font-family="SFTI1000" font-style="italic"><tspan y="-352.68525" x="380.98603 386.0769 391.1678 394.22633 399.3172 404.40809">$6,000</tspan></text>
<text fill="#404040" xml:space="preserve" transform="matrix(1 0 -0 1 0 792)" font-size="9.9626" font-family="SFRM1000"><tspan y="-336.91325" x="380.98603 388.73695 396.2089 406.85893 414.1914 418.6148 422.54008 426.96348 431.94477 435.8501 440.00453 448.8513 456.67195 460.57728 465.55857 470.80885">OURResearchGrant</tspan></text>
<text xml:space="preserve" transform="matrix(1 0 -0 1 0 792)" font-size="9.9626" font-family="SFTI1000" font-style="italic"><tspan y="-328.44725" x="380.98603 386.0769 391.1678 394.22633 399.3172 404.40809">$2,500</tspan></text>
<text fill="#404040" xml:space="preserve" transform="matrix(1 0 -0 1 0 792)" font-size="9.9626" font-family="SFRM1000"><tspan y="-312.67524" x="380.98603 387.7606 393.28984 398.27113 401.0407 406.56996 410.99336 415.41676 419.32209 422.09169 427.6209 435.91975 443.3917 446.1613 450.08656 452.85615 457.83744 463.36668 468.34797 472.2533 480.84107 486.3703 490.51475 496.04399 501.02528 503.79487 508.77616 512.6815 516.6068 522.13607 524.90567 542.4996 547.4809 552.4622 557.44357">EngineeringVisionaryScholarship2019</tspan></text>
<text xml:space="preserve" transform="matrix(1 0 -0 1 0 792)" font-size="9.9626" font-family="SFTI1000" font-style="italic"><tspan y="-302.27223" x="380.98603 386.0769 391.1678 396.25868 399.3172 404.40809 409.49897">$24,000</tspan></text>
<text fill="#404040" xml:space="preserve" transform="matrix(1 0 -0 1 0 792)" font-size="9.9626" font-family="SFRM1000"><tspan y="-286.4992" x="380.98603 388.45799 392.05448 404.49775 411.9697 414.7393 419.72059 428.57734 435.3519 440.88114 445.86244 448.63203 454.16127 458.58467 463.00807 466.9134 469.68299 475.21223 483.51106 491.3317 495.23704 500.21833 505.4686">AIMHighEngineeringGrant</tspan></text>
<text xml:space="preserve" transform="matrix(1 0 -0 1 0 792)" font-size="9.9626" font-family="SFTI1000" font-style="italic"><tspan y="-276.0962" x="380.98603 386.0769 391.1678 396.25868 399.3172 404.40809 409.49897">$20,000</tspan></text>
<text fill="#404040" xml:space="preserve" transform="matrix(1 0 -0 1 0 792)" font-size="9.9626" font-family="SFRM1000"><tspan y="-260.3242" x="380.98603 388.17903 393.70826 398.68955 404.21879 408.64219 413.06559 415.83518 418.60478 423.58607 427.4914 430.261 437.50379 443.03303 447.18745 452.71669 457.69798 460.46757 465.44886">Chancellor&#x2019;sScholar</tspan></text>
<text xml:space="preserve" transform="matrix(1 0 -0 1 0 792)" font-size="9.9626" font-family="SFTI1000" font-style="italic"><tspan y="-251.85819" x="380.98603 386.0769 391.1678 394.22633 399.3172 404.40809">$4,000</tspan></text>
<text fill="#404040" xml:space="preserve" transform="matrix(1 0 -0 1 0 792)" font-size="9.9626" font-family="SFRM1000"><tspan y="-236.08618" x="380.98603 388.17903 395.372 405.89253 411.42176 415.84516 420.82646 424.73179 432.47273 437.454 443.8201 448.8014 453.78269 457.10023 462.0815 467.0628 470.38035 475.36164 480.34294 483.66047 488.64176">ACTScoreof36-36-36-36</tspan></text>
<text fill="#0072bc" xml:space="preserve" transform="matrix(1 0 -0 1 0 792)" font-size="9.9626" font-family="SFBX1000" font-weight="bold"><tspan y="-210.18318" x="380.98603 387.3521 396.3284 400.6721 407.56623 414.46034">SKILLS</tspan></text>
<text fill="#404040" xml:space="preserve" transform="matrix(1 0 -0 1 0 792)" font-size="9.9626" font-family="SFBX1000" font-weight="bold"><tspan y="-190.75818" x="380.98603 388.81663 394.86393 399.3172 405.6833 411.41178">Python</tspan></text>
<text fill="#404040" xml:space="preserve" transform="matrix(1 0 -0 1 0 792)" font-size="8.9664" font-family="SFRM0900"><tspan y="-190.75818" x="428.46104 432.04759 438.05506 442.6638 447.7836 452.91239 457.51216 461.14353 475.2925 480.4213 487.58546 490.66093 496.41737 500.515 505.12376 508.72825 513.8481 527.9971 534.2646 539.1244 542.71096 547.31967 550.92416 554.7618 559.8816">(Pandas,SK-Learn,Pytorch,</tspan><tspan y="-178.80318" x="380.98603 387.8991 393.01893 400.69416 405.5629 409.65159 420.8058 429.25215 433.86088 437.44743 442.56724 445.12266 449.73139 453.31794 455.87336 458.42878 463.54859 474.71177 481.3648 488.59175 495.11927 499.98805 504.59678 508.22816 511.8147 522.9689 529.62197 534.23068 537.8172 543.197 548.05679 552.66549 556.2969 559.8834">Numpy,Matplotlib,XGBoost,Catboost,</tspan><tspan y="-166.84719" x="380.98603 386.86799 390.96565 396.08546 399.71684 404.32557 407.93006 410.48997 413.04988 417.40754 424.0606">Tensorflow)</tspan></text>
<text fill="#404040" xml:space="preserve" transform="matrix(1 0 -0 1 0 792)" font-size="9.9626" font-family="SFBX1000" font-weight="bold"><tspan y="-150.90718" x="380.98603 389.25498 392.43305 398.16154 404.52763">Cloud</tspan></text>
<text fill="#404040" xml:space="preserve" transform="matrix(1 0 -0 1 0 792)" font-size="8.9664" font-family="SFRM0900"><tspan y="-150.90718" x="420.00004 423.58659 430.6252 435.23396 438.8205 443.42924 448.54905 452.15354 454.70896 458.54658 463.40638 467.03776 479.35758 487.80393 493.56037 499.5768 502.13224 506.48094 513.134 525.4538 532.3669 537.4867 541.07327 545.68197 554.1283 559.8847">(Databricks,MLFlow,AutoML,</tspan><tspan y="-138.95218" x="380.98603 387.8991 393.01893 397.62767 401.46528 406.59407 415.8922 421.01203 426.13185 430.74058 434.34507 439.20487 447.4898 453.38075 462.84925 473.16957 478.28938 482.8981 491.19203 497.08296 506.55146 516.87179 521.9916 526.6003 531.209 535.30667 542.9819 547.5906 552.19039 556.288 559.8925">ApacheSpark,AWSS3,AWSSagemaker,</tspan><tspan y="-126.99718" x="380.98603 388.21296 390.76838 394.35493 399.9858 404.72007 407.27549 410.87998 415.4887 421.11064 428.0237 432.63246 435.18788 437.7433 441.84095 447.47184 452.59165 456.6893 460.2938 465.4136 473.08885">Git,Jira,Agile,Scrum)</tspan></text>
<text fill="#404040" xml:space="preserve" transform="matrix(1 0 -0 1 0 792)" font-size="9.9626" font-family="SFBX1000" font-weight="bold"><tspan y="-111.057178" x="380.98603 389.64353 396.0096 401.5787 404.75679 410.80409 415.25736 418.43544 423.5263">Analytics</tspan></text>
<text fill="#404040" xml:space="preserve" transform="matrix(1 0 -0 1 0 792)" font-size="8.9664" font-family="SFRM0900"><tspan y="-111.057178" x="432.57304 436.15959 441.2794 446.3992 450.0037 454.8635 457.4189 461.76765 466.37638 473.1191 480.0322 485.152 489.76075 492.31617 497.17597 500.7625 503.31794 507.4156 511.04698 518.0587 523.1785 530.34268 536.09909 542.8418 549.6204 554.2291 559.34896">(SurvivalAnalytics,SQL,Ran-</tspan><tspan y="-99.10217" x="380.98603 386.10585 390.71458 402.77439 408.0197 412.62846 416.23295 420.3306 423.96199 427.54853 434.8113 441.4644 444.02879 451.69505 455.7927 459.42408 463.52174 467.12623 469.68165 473.7793 477.41069 484.68244 489.80226 496.71534 505.16169 512.1017 518.3692 525.0223 531.93539 538.87539 546.03958 552.95266 559.8657">domForest,Timeseries,SVM,PCA,KNN,</tspan><tspan y="-87.14617" x="380.98603 386.86799 390.47248 395.0812 400.20103 403.8324 406.64787 410.7455 420.6803 434.17475 441.21339 445.31105 449.39973 460.84983 466.60627 470.70393 475.31266 478.91716 484.03697 486.59239 491.7122 496.32093 506.02256 512.93569 517.5354 530.3932 536.27517 540.3728 544.0042 547.59078 550.1462 555.266 559.8747">Transfer&#x0026;DeepLearning,A/BTesting,</tspan><tspan y="-75.19117" x="380.98603 387.00248 391.35118 397.7442 401.84187 405.44636 411.97389 415.3004 420.9313 426.81327 430.41777 435.0265 440.1463 443.77769 446.59315 451.20188 454.80638 462.4816 466.57926 470.18376 473.81513">PowerBI,Transformers)</tspan></text>
</svg>
