<svg xmlns="http://www.w3.org/2000/svg" xmlns:xlink="http://www.w3.org/1999/xlink" version="1.1" width="612pt" height="792pt" viewBox="0 0 612 792">
<text fill="#404040" xml:space="preserve" transform="matrix(1 0 -0 1 0 792)" font-size="29.7484" font-family="SFBX2986" font-weight="bold"><tspan y="-716.339" x="62.301 79.40633 93.26908 107.78629 123.19596 150.59426 172.45932 184.7454 200.98804 218.09337 227.49387 236.0614 251.47107">SevanBrodjian</tspan></text>
<text fill="#0072bc" xml:space="preserve" transform="matrix(1 0 -0 1 0 792)" font-size="14.3462" font-family="SFBX1440" font-weight="bold"><tspan y="-736.844" x="380.986 392.37687 403.76774 415.1586 419.54853 425.77479 432.94789 440.39356 448.28398 456.60478 465.3703 469.76023 478.52577 485.69886">www.sevanb.net</tspan></text>
<text fill="#404040" xml:space="preserve" transform="matrix(1 0 -0 1 0 792)" font-size="9.9626" font-family="SFRM1000"><tspan y="-721.9" x="380.986 388.179 393.70823 396.4778 400.9012 405.8825 410.8638 415.8451 421.93223 425.52873">Chicago,IL</tspan></text>
<text fill="#0072bc" xml:space="preserve" transform="matrix(1 0 -0 1 0 792)" font-size="9.9626" font-family="SFRM1000"><tspan y="-706.95706" x="380.986 384.91127 389.33467 394.04698 399.02827 404.27854 409.80778 413.7131 418.6944 423.6757 431.4266 436.4079 444.70677 449.68806 452.45765 455.22724 457.99684 462.42024 467.40153">sevanbro7@gmail.com</tspan></text>
<text fill="#0072bc" xml:space="preserve" transform="matrix(1 0 -0 1 0 792)" font-size="9.9626" font-family="SFRM1000"><tspan y="-692.01309" x="380.986 385.9673 388.73689 394.2661 399.2474 403.17268 407.59608 412.30839 417.28968 422.8189 426.1265">/in/sevan-b</tspan></text>
<text fill="#0072bc" xml:space="preserve" transform="matrix(1 0 -0 1 0 792)" font-size="9.9626" font-family="SFBX1000" font-weight="bold"><tspan y="-651.1141" x="54 61.521764 70.17926 78.009868 85.53163 94.11939 98.46309 105.984859 114.951198 123.22015">EXPERIENCE</tspan></text>
<text xml:space="preserve" transform="matrix(1 0 -0 1 0 792)" font-size="11.9552" font-family="SFBX1200" font-weight="bold"><tspan y="-628.7001" x="54 64.14996 75.35199 81.48501 86.97244 93.10546">Ameren</tspan></text>
<text fill="#404040" xml:space="preserve" transform="matrix(1 0 -0 1 0 792)" font-size="8.9664" font-family="SFRM0900"><tspan y="-613.7561" x="54 60.913095 64.23963 71.152729 80.8723 87.650897 91.748538 95.37993 99.47757 104.086299 107.69079 111.53738 119.723697 125.74015 130.34888 133.95337 138.81316 144.43509 147.76163 156.59352 162.21546 166.9497 171.55844 176.67826 183.33132 187.94005 192.54878 197.15752 204.83277 210.9837 217.25122 220.85572 224.95336 228.58475 232.68239 237.54218 244.20421 247.79077 258.02143 262.63017 267.2389 271.84764 279.53184 285.6738 290.28254 294.89128 299.5 307.1842 312.30403 316.91276 320.51725 324.1038 327.17927 330.7658 333.32124 340.99647 345.09413">UIUCResearchPark,IL|Jan.2023-Present(&#x0026;2020-2022part-time)</tspan></text>
<text xml:space="preserve" transform="matrix(1 0 -0 1 0 792)" font-size="11.9552" font-family="SFBI1200" font-weight="bold" font-style="italic"><tspan y="-598.81216" x="54 64.20974 71.10789 75.60304 87.34305 94.922649 101.127399 105.27585 111.4806 119.060199 123.55535 127.703807 133.32276">DataScientist</tspan></text>
<text fill="#404040" xml:space="preserve" transform="matrix(1 0 -0 1 0 792)" font-size="9.9626" font-family="SFRM1000"><tspan y="-584.4661" x="72.432">&#x2022;</tspan></text>
<text fill="#0072bc" xml:space="preserve" transform="matrix(1 0 -0 1 0 792)" font-size="9.9626" font-family="SFRM1000"><tspan y="-584.4661" x="83.265 90.458 94.36334 98.786739 103.768039 107.643489 110.413089 115.94233">Creating</tspan></text>
<text fill="#404040" xml:space="preserve" transform="matrix(1 0 -0 1 0 792)" font-size="9.9626" font-family="SFRM1000"><tspan y="-584.4661" x="124.500209 129.4815 138.58731 144.11655 149.09784 154.62708 158.53241 161.30202 170.13884 172.90845 177.88974 182.87104 191.97684 195.02539 200.00669 203.91202 208.33542 212.75882 217.74011 221.66538 229.1174 234.64664 239.62793 243.55319 247.9766 257.0824 262.0637 271.1695 276.69874 281.12214 286.3824 290.8058 295.78709 299.6924 303.56788 307.99128 316.8281 321.2515 325.15684 329.06217 334.04347 341.52537 349.82423 352.5938 358.12306">anhourlyloadforecastbasedonneocortexerrormin-</tspan><tspan y="-570.1201" x="83.265 86.0346 94.33344 97.10304 101.526439 106.50774 110.38319 113.15279 118.13409 126.89121 132.15146 134.92107 143.1402 147.5636 152.54489 156.45023 160.32569 163.09529 167.51869 172.49999 178.49747 182.92087 187.90216 190.67177 196.201 204.49985 210.02909 217.18222 222.43251 230.9306 236.45984 240.3851 243.15471 248.68395 256.89314 262.42237 265.19197 269.61537 273.5207 278.50199 282.40733 286.55177 292.081 294.8506 299.274 304.25529 307.02488 309.79447 318.29258 322.71598 327.69728 333.2265 338.75575 343.17915 347.60255 351.478 355.9014">imizationviacorticalcolumnsbyusinghierarchicallyconnected</tspan><tspan y="-555.7741" x="83.265 87.19026 92.719509 95.489109 100.74936 103.51896 109.0482 117.347049 122.87629 127.29968 132.82892 136.73426 141.71555 147.81267 153.3419 157.7653 161.36182 168.27587 173.25716 177.16249 182.42275 189.66556 193.54102 201.01297 208.48493 215.6879 218.73645 223.71775 230.94063 235.92192 239.82726 242.59687 251.44365 256.9729 259.7425 264.7238 270.25303 275.78227 278.55186 284.0811 292.3799 297.3612 302.89045 311.7472 315.65254 320.07594 322.84553 325.6151 330.5964 336.12565 338.89524 341.66484 344.43443 348.0309">spikingneuralnetworks(NN)forgridplanningandreliability</tspan></text>
<text fill="#404040" xml:space="preserve" transform="matrix(1 0 -0 1 0 792)" font-size="9.9626" font-family="SFRM1000"><tspan y="-541.4281" x="72.432">&#x2022;</tspan></text>
<text fill="#0072bc" xml:space="preserve" transform="matrix(1 0 -0 1 0 792)" font-size="9.9626" font-family="SFRM1000"><tspan y="-541.4281" x="83.265 90.87643 95.29982 99.22508 101.99468 106.97598 112.505229 115.274829 120.80407">Designing</tspan></text>
<text fill="#404040" xml:space="preserve" transform="matrix(1 0 -0 1 0 792)" font-size="9.9626" font-family="SFRM1000"><tspan y="-541.4281" x="128.95348 137.09291 141.51631 146.4976 154.79645 160.32569 165.85492 169.73038 174.15378 181.21726 186.47751 189.24712 193.17238 195.94199 200.92328 209.62062 215.14986 217.91947 223.72765 228.15105 230.92066 233.69026 239.2195 246.80104 249.57065 258.268 265.87944 270.86073 274.73619 279.71748 285.2467 289.15205 291.92164 296.06608 301.32633 308.40974 312.2852 317.81443 322.79573 329.8393 335.36854 339.27388 343.69728 349.2265 353.13185 358.11314">acomputervisionpipelineinDatabricksthatprepro-</tspan><tspan y="-527.0821" x="83.265 87.68839 92.111789 96.03705 99.96231 104.385707 111.46911 114.23871 122.53755 127.51885 132.50016 136.92356 144.00696 148.98825 154.51749 163.20487 167.08032 172.60956 177.03296 185.72034 191.24958 195.17484 199.6082 206.6916 210.56707 214.4724 219.45369 224.98293 228.90819 231.95674 236.38014 243.44362 246.21323 250.63663 255.61792 259.52326 265.0525 267.82209 273.35133 281.49076 286.47206 292.67875 300.81819 308.01118 312.99247 318.24275 323.22404 328.20533 330.9749 336.50416 340.3796 343.1492 348.1305 353.65974 358.64103">cessesimagesandthenusestransferlearningofaConvolutional</tspan><tspan y="-512.7361" x="83.265 90.73695 101.52645 105.4019 113.71071 118.1341 123.1154 126.99085 131.97216 134.74176 139.71309 148.0219 153.55113 156.32074 161.30204 166.55233 173.74533 176.51494 181.77518 186.19858 191.17987 195.05533 197.82494 202.80623 208.33547 215.57828 218.62683 223.60813 230.84098 235.26438 239.68778 244.66907 247.43868 252.41997 257.40129 260.17088 264.59428 269.57557 275.6627 281.19194 285.09727 289.52067 293.44593 297.86933 301.77467 306.47703 311.4583 315.33378 318.10337 323.08467">NNtocatalogplantlocationsforecologicalpreservation</tspan></text>
<text fill="#404040" xml:space="preserve" transform="matrix(1 0 -0 1 0 792)" font-size="9.9626" font-family="SFRM1000"><tspan y="-498.39009" x="72.432">&#x2022;</tspan></text>
<text fill="#0072bc" xml:space="preserve" transform="matrix(1 0 -0 1 0 792)" font-size="9.9626" font-family="SFRM1000"><tspan y="-498.39009" x="83.265 86.861499 92.39074 97.91998 102.343379 108.15157 112.57497 118.10421 123.63345 128.05686 133.30715 137.1826 139.95221 148.49016 151.25977 155.68317 160.66446">Independentlylead</tspan></text>
<text fill="#404040" xml:space="preserve" transform="matrix(1 0 -0 1 0 792)" font-size="9.9626" font-family="SFRM1000"><tspan y="-498.39009" x="169.46143 177.72042 183.24965 188.23094 192.1064 200.35543 204.28069 208.70409 211.4737 215.8971 221.42633 225.84973 233.55083 237.45616 241.87957 245.80483 250.22823 255.20952 259.11488 263.2593 272.06626 275.9417 280.3651 285.3464 296.913 301.8943 308.22056 313.7498 319.27903 324.80827 329.23167 333.137 338.1183 342.02363 347.0049 352.53416 358.0634">adatascienceresearchteamofundergradu-</tspan><tspan y="-484.04408" x="83.265 88.2463 92.12175 100.221347 104.096797 112.74433 119.5189 125.04814 136.33576 139.10536 143.52877 148.51007 152.93347 159.36933 162.13893 167.39917 171.27463 175.69803 179.60337 185.1326 192.72409 195.4937 204.69913 210.22837 214.65177 219.63307 224.05648 226.82608 231.80738 237.33661 240.10622 245.63545 254.29294 258.71635 264.24559 269.7748 273.09236 276.9678 281.9491 285.26664 289.69004 295.21928 304.41474 313.54048 323.4433 328.97254 331.74214 337.55033 341.97373 344.74333 347.5129 353.04216 357.46556">atetoPhDlevelinternsindevelopingend-to-endMLpipelines</tspan><tspan y="-469.69709" x="83.265 86.31355 91.29485 98.51774 101.56629 106.54759 110.452938 114.87633 119.29972 124.28102 128.20629 132.08174 134.85135 140.38059 145.36188 151.44904 155.8824 158.65201 163.6333 167.55857 171.48383 174.25344 177.01805 179.78267 184.20607 189.18737 193.06282 195.83243 200.81372 206.34296 212.43012 217.4114 222.94065 231.78743 236.21083 241.19213 249.49097 255.0202 260.54945 264.4249 268.8483 276.08116 281.3414 284.111 288.03627 290.80586 295.78715 304.6339 308.50938 313.49067 317.41593 322.67619">forforecasting,classification,andcomputervisiontasks</tspan></text>
<text fill="#404040" xml:space="preserve" transform="matrix(1 0 -0 1 0 792)" font-size="9.9626" font-family="SFRM1000"><tspan y="-455.35108" x="72.432">&#x2022;</tspan></text>
<text fill="#0072bc" xml:space="preserve" transform="matrix(1 0 -0 1 0 792)" font-size="9.9626" font-family="SFRM1000"><tspan y="-455.35108" x="83.265 90.87643 95.29982 100.28112 104.70451 107.47411 112.455417 118.26361 122.687007">Developed</tspan></text>
<text fill="#404040" xml:space="preserve" transform="matrix(1 0 -0 1 0 792)" font-size="9.9626" font-family="SFRM1000"><tspan y="-455.35108" x="131.86257 140.50014 146.02938 148.79898 153.78028 159.30951 162.62706 167.60836 172.03176 176.45516 181.98439 185.88973 190.87102 195.29442 204.20099 211.81241 216.23581 220.65921 229.83477 235.364 240.89324 244.79857 250.05883 252.82843 257.54075 262.52204 268.93794 276.40989 281.93913 286.9204 289.69 294.95027 298.87553 301.6451 309.22666 316.55915 324.0311 335.14936 343.4482 348.70848 354.2377 358.6611">ahigh-accuracyDeepSurvivalAnalysisRNNmodel</tspan><tspan y="-441.00508" x="83.265 88.79424 92.699588 97.12298 102.65222 105.42182 109.845218 113.720668 116.490268 122.01951 131.78285 136.20626 144.5051 150.03433 152.80394 157.51624 162.49755 166.92095 176.12639 181.10768 184.98314 188.8586 192.76393 195.53354 199.409 202.1786 207.1599 212.68914 220.6094 224.51474 228.93814 232.8634 238.39264 241.16225 245.0377 247.80731 253.33655 263.09989 265.86949 276.18077 285.9441 290.92539 295.90669 300.88798 313.96888 316.73847 322.2677 326.6911 330.59645 335.01985 340.00114 343.9264 353.1418 355.9114">predictingemployeeattrition,resultingina312%increasein</tspan><tspan y="-426.65907" x="83.265 89.0732 93.49659 97.40193 100.450489 105.431789 109.33713 117.63597 122.61727 128.14652 132.56992 140.31087 145.29216 150.8214 159.66819 164.09159 169.07288 174.60211 178.47757 184.0068 187.91214 190.68175 196.21099 204.51979 209.50109 212.27069 217.25199 222.23328 230.53212 238.83097 241.60057 245.52584 249.4511 253.8745 262.72129 266.62663 271.05003 274.92549 277.69508 281.6004 286.0238 294.32267 298.74607 304.00633 307.88179 315.12458 320.93278 325.35618 332.57905 337.56034 341.98374 346.96504">performanceandcapturing1,255missedretirementsperyear</tspan></text>
<text xml:space="preserve" transform="matrix(1 0 -0 1 0 792)" font-size="11.9552" font-family="SFBX1200" font-weight="bold"><tspan y="-397.36906" x="54 63.56416 70.10365 77.57565 89.16024 95.87907 104.47485 114.62482 125.82684 131.95986 137.4473 141.17733 147.15493">BankofAmerica</tspan></text>
<text fill="#404040" xml:space="preserve" transform="matrix(1 0 -0 1 0 792)" font-size="8.9664" font-family="SFRM0900"><tspan y="-382.42506" x="54 60.65307 65.77288 68.32831 72.42595 77.034679 81.6434 86.25213 91.87406 95.2006 104.03251 109.663417 114.263179 118.8719 123.48063 131.16483 136.28464 141.40445 149.07968 156.75492 160.85256 167.52356 170.8501 175.71886 179.30542 183.40306 187.00756 192.12737 195.75876 200.87857 203.43399">Chicago,IL|2022SummerInternship</tspan></text>
<text xml:space="preserve" transform="matrix(1 0 -0 1 0 792)" font-size="11.9552" font-family="SFBI1200" font-weight="bold" font-style="italic"><tspan y="-367.48106" x="54 63.63589 70.18734 75.71064 81.91539 87.71366 93.3326 98.84395 105.0487 112.28159 118.079868 122.22832 126.72347 138.11678 147.84832 155.4279 162.32605 165.79306 172.34452 177.96346">CybersecurityAnalyst</tspan></text>
<text fill="#404040" xml:space="preserve" transform="matrix(1 0 -0 1 0 792)" font-size="9.9626" font-family="SFRM1000"><tspan y="-353.13505" x="72.432">&#x2022;</tspan></text>
<text fill="#0072bc" xml:space="preserve" transform="matrix(1 0 -0 1 0 792)" font-size="9.9626" font-family="SFRM1000"><tspan y="-353.13505" x="83.265 90.458 95.4393 100.968547 106.49779 112.02703 116.450428 120.325878 124.74927">Conducted</tspan></text>
<text fill="#404040" xml:space="preserve" transform="matrix(1 0 -0 1 0 792)" font-size="9.9626" font-family="SFRM1000"><tspan y="-353.13505" x="134.82144 137.59105 143.12029 146.43784 151.96707 156.39048 161.91971 165.79517 175.85739 179.76273 184.18613 188.11139 192.54476 197.51609 201.42142 205.57582 215.63805 220.61934 230.69152 234.61678 239.04018 243.46358 248.99282 252.89815 255.66776 259.26426 269.06745 272.97279 275.74238 279.66764 284.9279 293.38615 298.36744 302.2927 306.21797 311.4782 315.9016 318.6712 323.6525 327.52796 331.95137 342.02354 349.21653 351.9861 355.86158">in-depthresearchonsecurityrisksassociatedwith</tspan><tspan y="-338.78904" x="83.265 87.96735 92.94865 96.85399 99.62359 104.60489 110.13413 118.46287 122.88626 127.86756 131.7729 137.58109 142.56238 146.46772 151.449 155.32447 164.14138 169.67061 173.57595 178.83618 184.36542 189.89466 194.31806 198.19351 206.51229 211.49358 217.02281 226.95552 230.88079 235.30419 239.20952 244.46977 247.23938 251.66278 256.08619 260.01145 267.44355 271.86695 277.39619 282.37748 287.9067 290.6763 293.4459 298.97514 308.3599 312.23536 317.7646 326.58149 330.45695 334.88035 339.86164 352.56398 356.43943">variouscorporateproductsandservices,enablingtheteamto</tspan><tspan y="-324.44303" x="83.265 87.68839 92.39074 97.37204 100.14164 105.67088 110.65218 114.52763 122.278537 127.259838 132.24114 143.85753 152.15637 157.13767 161.043 168.78395 172.70922 177.13262 181.03795 186.2982 189.06781 193.49121 197.91461 205.16739 210.96562 215.38903 222.62187 229.53592 233.95932 238.38272">evaluate30%moreservicesperweek</tspan></text>
<text fill="#404040" xml:space="preserve" transform="matrix(1 0 -0 1 0 792)" font-size="9.9626" font-family="SFRM1000"><tspan y="-310.09703" x="72.432">&#x2022;</tspan></text>
<text fill="#0072bc" xml:space="preserve" transform="matrix(1 0 -0 1 0 792)" font-size="9.9626" font-family="SFRM1000"><tspan y="-310.09703" x="83.265 90.87643 95.29982 103.59866 108.57996 114.10921 118.03447 121.90992 125.81526 130.79656 134.67201 139.09542">Demonstrated</tspan></text>
<text fill="#404040" xml:space="preserve" transform="matrix(1 0 -0 1 0 792)" font-size="9.9626" font-family="SFRM1000"><tspan y="-310.09703" x="147.61344 153.14267 157.048 162.0293 166.4527 170.32816 173.09777 177.52117 182.50246 188.25089 192.67429 197.93454 203.74272 208.16613 212.07146 215.94692 218.71652 222.64179 230.05397 232.82358 241.3416 245.765 251.02526 256.8235 261.2469 265.15223 269.07749 273.5009 277.9243 283.45353 287.35887 290.12846 293.73493 301.974 307.22428 315.4733 321.00254 325.98384 329.88917 333.76463 336.5342 340.9576 343.7272 349.25645 354.23774 358.1132">practicalexpertiseincybersecuritybyparticipat-</tspan><tspan y="-295.751" x="83.265 86.0346 91.56384 99.862689 102.632289 111.48904 115.4143 118.1839 126.20379 131.73303 134.50264 139.48394 143.35939 147.78279 156.62958 162.43776 166.86116 172.11145 175.98691 180.41031 184.33557 188.21103 190.98064 196.50988 204.81868 209.24208 214.50234 218.92574 222.83107 227.25447 230.02408 233.94934 238.37274 245.61556 250.59685 259.44364 267.75245 275.50337 280.4747 283.25425 289.34138 295.568 298.3376 303.58787 309.1171 317.6949 321.62016 326.04356 329.919 335.44825">inginsimulatedpentestingexercisesonaKaliLinuxsetup</tspan></text>
<text xml:space="preserve" transform="matrix(1 0 -0 1 0 792)" font-size="11.9552" font-family="SFBX1200" font-weight="bold"><tspan y="-266.461" x="54 59.009229 68.71685 78.81899 88.8494 96.93112 107.081089 121.12845 128.60045 134.73346 145.93549 149.66551 155.64311 162.36194 169.83394 177.30594 184.77794 190.75554 195.97997 202.69879 212.66944 220.75115 227.29064 235.13324 241.85207 247.33951 253.879 259.10343 265.82225 271.30967">ICORLABSemiconductorLaboratory</tspan></text>
<text fill="#404040" xml:space="preserve" transform="matrix(1 0 -0 1 0 792)" font-size="8.9664" font-family="SFRM0900"><tspan y="-251.517" x="54 60.65307 65.77288 70.38161 78.05685 83.17666 87.785388 90.34081 94.94954 100.06935 105.70026 109.026798 117.84973 123.48064 128.72599 132.82363 137.94344 144.5965 149.20523 153.81397 158.4227 166.09795 173.7732 180.6863 185.81508 190.41484 197.0679 201.67664 206.28537 210.8941">Champaign,IL|Feb.2020&#x2013;Aug.2021</tspan></text>
<text xml:space="preserve" transform="matrix(1 0 -0 1 0 792)" font-size="11.9552" font-family="SFBI1200" font-weight="bold" font-style="italic"><tspan y="-236.573" x="54 64.25756 71.83716 78.735309 84.940059 90.05688 96.26163 101.36649 108.26464 115.16279 122.39568 129.29384 133.789 144.8356 154.10088 160.30562 165.92456 171.44786 178.34601 183.46285 189.66759 196.56574 202.77048">UndergraduateResearcher</tspan></text>
<text fill="#404040" xml:space="preserve" transform="matrix(1 0 -0 1 0 792)" font-size="9.9626" font-family="SFRM1000"><tspan y="-221.629" x="54 59.529245 62.298849 70.31874 75.847988 78.617588 83.598888 87.474338 90.243938 95.225238 104.081989 109.063289 115.42938 125.67094 128.44054 133.96977 138.39318 141.71073 147.23996 152.22126 157.75049 163.27973 168.26102 173.24231 182.0891 191.21485 193.98445 198.40785 202.31319 207.57343 211.99683 214.76644 219.18984 223.61324 227.4887 231.39403 236.37532 241.90456 244.67417 249.09757 256.34037 259.10997 265.20707 271.98164 275.57814 281.66526 289.27668 293.182 300.375 307.568 312.5493 321.40605 328.45957 333.1619 338.42216 342.32749 347.30879">SimulationofWide-bandgapMicroelectronics||PI:Dr.CanBayram</tspan></text>
<text fill="#404040" xml:space="preserve" transform="matrix(1 0 -0 1 0 792)" font-size="9.9626" font-family="SFRM1000"><tspan y="-207.283" x="72.432">&#x2022;</tspan></text>
<text fill="#0072bc" xml:space="preserve" transform="matrix(1 0 -0 1 0 792)" font-size="9.9626" font-family="SFRM1000"><tspan y="-207.283" x="83.265 90.458 94.36334 98.786739 103.768039 107.643489 112.06688">Created</tspan></text>
<text fill="#404040" xml:space="preserve" transform="matrix(1 0 -0 1 0 792)" font-size="9.9626" font-family="SFRM1000"><tspan y="-207.283" x="121.182659 126.7119 131.41425 136.39556 140.81896 147.1751 155.47394 158.24355 162.66695 166.57228 171.82257 176.25594 179.02555 183.44895 187.87235 191.7478 195.65314 200.63443 206.16367 208.93328 216.93325 222.74143 227.44377 234.35782 238.78122 246.27309 251.80233 256.2257 261.48597 264.25556 268.67897 273.10237 280.61418 285.03758 290.01887 298.31773 304.12593 309.1072 313.03248 317.45588 326.56169 331.54298 338.17808 345.37107 348.14067 353.6699 358.0933">novelmicroelectronicpowerdevicescomposedofwide-</tspan><tspan y="-192.93701" x="83.265 88.79424 93.77554 99.30479 104.83403 109.81533 114.79663 123.44417 131.74301 136.7243 140.59976 145.02317 148.9285 151.6981 156.6794 159.449 163.37427 169.30202 172.07163 177.60086 182.03423 184.80384 190.33307 195.8623 198.63191 204.16115 212.26074 220.08139 225.06269 235.65293 243.12488 249.89945 262.14347 266.01893 269.92427 274.90556 280.43479 284.36006 287.12965 291.0549 294.93037 299.91166 303.817 310.86054 321.73973 329.35115 332.12074 337.10203 345.40089 350.38218 355.9114">bandgapmaterials,includingGaNHEMtransistors&#x0026;Diamond</tspan><tspan y="-178.59102" x="83.265 90.039569 92.809169 103.439258 111.05068 113.82028 119.080539 124.60978 129.03318 132.95844 138.91608 144.16637 152.58477 158.114 162.03926 164.80887 170.3381 178.47754 184.00678 189.26703 194.79627 199.77756 205.3068 209.23206 214.49231 221.57572 227.10495 231.52835 236.78859 240.66405 245.63538 251.17458 255.06995 260.60914 267.69255 271.55805 279.69749 284.67878 289.10218 294.6314 299.0548 302.96015 307.94145 311.8169 319.39845 327.6973 332.1207 336.0559 344.7433 347.5079 350.27253 353.0421 357.4655">PiNDiodes,byusingSynopsysSentaurustogeneratemeshfiles</tspan></text>
<text fill="#404040" xml:space="preserve" transform="matrix(1 0 -0 1 0 792)" font-size="9.9626" font-family="SFRM1000"><tspan y="-164.24402" x="72.432">&#x2022;</tspan></text>
<text fill="#0072bc" xml:space="preserve" transform="matrix(1 0 -0 1 0 792)" font-size="9.9626" font-family="SFRM1000"><tspan y="-164.24402" x="83.265 88.79424 91.56384 99.58373 105.112979 107.882579 112.86388 116.73933 121.16272">Simulated</tspan></text>
<text fill="#404040" xml:space="preserve" transform="matrix(1 0 -0 1 0 792)" font-size="9.9626" font-family="SFRM1000"><tspan y="-164.24402" x="131.53379 135.95719 138.72679 143.15019 147.5736 151.44905 155.35439 158.124 162.5474 167.52869 175.14012 180.66936 185.09276 190.35301 193.12262 197.54602 206.81125 210.9557 216.48494 221.46623 225.37157 230.35286 234.77626 238.65172 243.07512 246.98046 249.75006 253.67533 257.55079 260.32038 264.74378 273.51087 278.76115 288.86323 296.0562 299.96156 302.73115 306.6066 309.3762 314.90544 324.71858 330.9452 333.71479 337.64006 343.16929 346.48683 349.2564 352.026 357.01728">electricaldevicecharacteristicsbywritingLisp-like</tspan><tspan y="-149.89803" x="83.265 88.79424 93.217639 98.467929 102.343379 107.32468 112.85392 116.75926 122.288509 129.54128 137.1527 141.5761 146.83635 149.60596 154.02936 161.77031 168.9633 176.1563 183.62825 194.55722 198.48249 202.90589 206.81122 209.58083 215.11006 218.98552 226.2383 230.11376 238.4126 243.39389 248.92313 253.90442 256.674 261.93428 266.35768 274.0986 278.522 281.2883 284.0546 286.82087 291.24427 296.22557 300.64897 309.23674 314.20808 320.58415 326.11338 330.53678 334.46205 337.23164 342.21293 347.74217">SentaurusDeviceTCADscriptstoanalyzeefficacyofdesigns</tspan></text>
<text fill="#404040" xml:space="preserve" transform="matrix(1 0 -0 1 0 792)" font-size="9.9626" font-family="SFRM1000"><tspan y="-135.55204" x="72.432">&#x2022;</tspan></text>
<text fill="#0072bc" xml:space="preserve" transform="matrix(1 0 -0 1 0 792)" font-size="9.9626" font-family="SFRM1000"><tspan y="-135.55204" x="83.265 89.49162 93.915019">Led</tspan></text>
<text fill="#404040" xml:space="preserve" transform="matrix(1 0 -0 1 0 792)" font-size="9.9626" font-family="SFRM1000"><tspan y="-135.55204" x="103.09057 106.96602 112.49526 120.564968 126.09421 130.51761 135.49892 139.92232 142.69193 147.67322 153.20246 161.5013 165.9247 171.17499 178.69676 183.67806 190.37293 199.00054 204.26079 207.0304 210.95566 216.4849 221.46619 227.88211 232.8634 238.39264 247.56819 251.44365 260.0613 265.0426 270.57185 274.4473 277.2169 285.51576 288.28535 292.70875 300.77845 304.6539 310.18315 318.25285 326.5517 331.533 336.79325 339.56285 347.58274 353.11198">thedevelopmentofavisualapptooptimizethemaximum</tspan><tspan y="-121.20603" x="83.265 88.51529 94.04453 102.07439 107.87262 112.29601 119.39935 124.38065 130.6272 136.15644 138.92604 143.34944 150.4727 155.454 164.18123 172.36052 179.27457 184.25586 187.30442 191.72782 198.83115 202.7066 208.23584 212.14118 217.12247 222.6517 227.633 236.36023 244.52956 250.05879 253.96413 258.94544 264.47468 268.38 271.1496 275.573 279.44847 284.42976 288.33509 296.79335 301.77464 304.54423 309.5255 314.5068 318.41215 321.18174 325.0572 330.58644 342.08329 349.27629 352.04588 355.92134">numberofdiesonawaferthroughaproprietaryalgorithmwith</tspan><tspan y="-106.86003" x="83.265 87.17034 92.15164 97.680889 103.21013 107.13539 111.01084 115.434238 120.96348 125.38687 129.31214 135.8177 139.69316 147.24481 152.77405 157.75534 163.28458 168.81381 171.58342 178.57718 183.01055 187.99184 196.29068 201.81992 204.58953 209.01293 216.84354 222.37277 226.79618 230.72144 233.49105 238.47234 246.57193 251.0053 255.97663 261.5158 264.28044 267.04505 272.02635 277.55558 281.4609 286.43226 290.3077 293.0773 298.0586 303.58784 310.0934 315.62266 321.1519 323.92149 326.69108 331.67237 338.6761 343.65739 347.53285 353.06208 357.48548">robustenesstohandlecomplexdesignconfigurationsunlikeother</tspan><tspan y="-92.51403" x="83.265 88.79424 94.32349 99.85273 102.62233 105.39193 109.81532 112.58492 121.16272 125.87503 130.57738 135.55867 138.32828 141.09789 146.07918 151.60842 154.37802 162.11898 165.99443 171.25467 176.23596 179.00557">publiclyavailabletools</tspan></text>
<text fill="#0072bc" xml:space="preserve" transform="matrix(1 0 -0 1 0 792)" font-size="9.9626" font-family="SFBX1000" font-weight="bold"><tspan y="-651.114" x="380.98603 388.50779 397.2948 406.1117 414.38066 422.08174 430.05183 434.3955 443.0032">EDUCATION</tspan></text>
<text xml:space="preserve" transform="matrix(1 0 -0 1 0 792)" font-size="11.9552" font-family="SFBX1200" font-weight="bold"><tspan y="-628.7" x="380.98603 391.3153 398.7873 402.5173 409.24809 415.3811 420.86854 426.17665 429.90666 434.76048 446.34507 453.0519 461.6477 466.65693 470.38694 474.11695 477.84696 485.31898 492.03779 495.7678">UniversityofIllinois</tspan></text>
<text xml:space="preserve" transform="matrix(1 0 -0 1 0 792)" font-size="11.9552" font-family="SFBX1200" font-weight="bold"><tspan y="-613.756" x="380.98603 391.3153 396.80274 404.27473 410.8142 418.2862 424.82569 429.3089 439.0165 446.48854 453.028 464.23005 471.70204 478.24153 481.97154 488.69035">Urbana-Champaign</tspan></text>
<text fill="#404040" xml:space="preserve" transform="matrix(1 0 -0 1 0 792)" font-size="9.9626" font-family="SFRM1000"><tspan y="-598.813" x="380.98603 388.03956 390.80915 396.33839 402.4255 405.1951 414.05186 421.24485 426.22615 434.525 440.05424 445.58348 449.45893 453.88233 461.1052 467.87977 473.409 478.3903 481.15989 486.68913 491.11253 495.53593 499.44126 502.21086 507.74009">B.S.inComputerEngineering</tspan></text>
<text fill="#404040" xml:space="preserve" transform="matrix(1 0 -0 1 0 792)" font-size="9.9626" font-family="SFBX1000" font-weight="bold"><tspan y="-583.869" x="380.98603 389.99223 396.8664 405.5239 412.52763 418.2561 421.42424 427.1527 432.8812 438.60969 444.33818 447.51625 453.24473">GPA:3.98/4.00</tspan></text>
<text fill="#404040" xml:space="preserve" transform="matrix(1 0 -0 1 0 792)" font-size="9.9626" font-family="SFRM1000"><tspan y="-583.869" x="458.98005 465.06718 472.6786 477.102 481.5254 485.9488 493.97868 499.7769 504.21025 511.4331 516.4144 521.39578 526.3771">,December2022</tspan><tspan y="-568.92507" x="380.98603 388.45799 391.22758 396.20887 404.06935 411.5413 416.52259 422.05183 427.0331 430.93846 434.8637 440.1638 447.35679 452.33808 460.63694 466.16618 471.6954 477.96189 485.43385 490.41514 495.94438 500.92567 504.831 508.75627 514.05636 521.6678 526.0912 531.0725 536.60177 539.37136 545.62789 551.8545 554.6241 558.5494">HighHonors,CampusHonors,Dean&#x2019;sList</tspan><tspan y="-542.02609" x="380.98603 388.17903 393.1603 398.1416 403.67085 406.44044 410.3159 413.08549 418.06678 426.20625 433.6782 438.1016 443.63084 447.53617 452.51747 456.44273 460.86613 463.6357 468.0591 473.58836 478.01176 482.43516 489.01048 496.48243 500.07893 506.56459 514.0365 519.56576 525.095 527.86459 530.63418 535.05758 544.2929 553.41867 559.64529">CognitiveNeuroscience,AI,AppliedML,</tspan><tspan y="-530.07107" x="380.98603 388.17903 393.1603 395.9299 400.3533 408.43296 412.3084 416.18388 419.78038 426.16639 433.7778 436.5474 439.45149 442.3556 450.43525 457.2098 462.47007 466.39533 472.85108 479.0777 481.8473 487.37654 491.79994 496.78123 504.30299 511.77494 514.54458 519.5259 523.9493 529.4785 533.38388 538.3652 544.8209 552.4324 555.20199 559.1372">Calc.III,Diff.Eqs,LinearAlgebra,Dis-</tspan><tspan y="-518.11508" x="380.98603 385.40943 389.31477 393.73817 397.61363 405.4542 414.57994 419.56123 423.43669 428.9659 432.89118 439.0879 444.62709 447.39668 452.368 457.9072 462.87855 469.0653 475.83988 479.7452 485.00547 489.42887 493.85227 497.77754 501.7028 504.47239 510.00163 514.9829 521.1896 528.9405 534.4697 539.45108 544.70138 548.5768 554.106">creteMaths,SignalProcessing,Quantum</tspan><tspan y="-506.16007" x="380.98603 387.7606 393.01087 398.27113 402.19639 404.96598 409.38938 413.31465 420.86628 428.4777 433.45899 437.33445 446.80888 452.3381 456.21357 460.1189 465.64814 470.07154 473.947 479.47624 483.38157 487.80497 491.73023 499.28187 508.4076 511.1772 515.6006 519.5059 524.7662 529.1896 531.95919 536.38259 540.80599 544.6814 548.58676 553.56808 559.0973">Physics,DataStructures,Microelectron-</tspan><tspan y="-494.20509" x="380.98603 383.7556 388.17903 392.10429 398.1914 405.66337 408.43296 413.41426 418.39555 422.30088 425.07048 428.94593 434.47517 442.77403 446.69929 452.7964 459.57096 463.4763 468.45759 473.98683 478.9681 484.49736 487.26695 490.03654 492.80613 496.40263">ics,Algorithms,Probability</tspan></text>
<text fill="#0072bc" xml:space="preserve" transform="matrix(1 0 -0 1 0 792)" font-size="9.9626" font-family="SFBX1000" font-weight="bold"><tspan y="-464.31709" x="380.98603 387.3521 396.3284 400.6721 407.56623 414.46034">SKILLS</tspan></text>
<text fill="#404040" xml:space="preserve" transform="matrix(1 0 -0 1 0 792)" font-size="9.9626" font-family="SFBX1000" font-weight="bold"><tspan y="-444.8921" x="380.98603 389.64353 396.0096 401.5787 404.75679 410.80409 415.25736 418.43544 423.5263">Analytics</tspan></text>
<text fill="#404040" xml:space="preserve" transform="matrix(1 0 -0 1 0 792)" font-size="8.9664" font-family="SFRM0900"><tspan y="-444.8921" x="433.596 437.18257 442.4279 446.52555 451.13429 454.72084 459.84065 463.44514 472.67158 478.9391 484.0589 488.66764 491.22306 496.34288 500.44053 504.53819 508.14268 510.6981 515.81796 520.42666 528.63088 535.54397 539.6416 542.96817 549.3702 553.9789 557.5834">(FeatureEngineering,Network</tspan><tspan y="-432.9371" x="380.98603 387.8991 393.01893 397.62767 400.18309 405.04289 408.67427 411.22969 414.86106 424.82273 429.94255 437.1067 442.86314 451.95506 458.60813 461.16355 468.83879 472.93644 476.5678 480.66548 484.26997 486.82539 490.92304 501.0909 504.67747 511.59056 518.36917 521.6957 530.142 537.0551 540.64169 549.74258 556.7812 559.3366">Analysis,SQL,Timeseries(ARIMA),Di-</tspan><tspan y="-420.98213" x="380.98603 388.66127 392.7589 397.87873 401.5101 404.06553 408.67427 413.79408 418.4028 420.95823 423.51365 426.84913 434.77543 441.55403 445.65168 450.77149 455.8913 459.98896 463.5755 466.13093 470.73966 475.85948 481.49037 487.63233 492.24107 494.79649 499.9163 507.08045 510.40699 518.0822 523.202 528.3308 531.91738 536.5171 540.10366 542.668 547.26779 552.39657">mensionalityReduction,ValueImputation)</tspan></text>
<text fill="#404040" xml:space="preserve" transform="matrix(1 0 -0 1 0 792)" font-size="9.9626" font-family="SFBX1000" font-weight="bold"><tspan y="-405.0411" x="380.98603 391.85523 397.42433 402.19639 408.56248 411.74055 418.10664 435.72053 442.61463 447.86494 453.43403 458.15629 464.52238 467.70045 474.06654">MachineLearning</tspan></text>
<text fill="#404040" xml:space="preserve" transform="matrix(1 0 -0 1 0 792)" font-size="8.9664" font-family="SFRM0900"><tspan y="-405.0411" x="490.52403 494.11058 501.1492 505.24687 509.3445 524.4081 530.1645 534.26217 538.87088 542.47537 547.59518 550.1506 555.2704 559.8791">(DeepLearning,</tspan><tspan y="-393.08613" x="380.98603 388.21296 391.81745 396.42619 401.546 404.1014 408.19908 413.0678 421.5052 428.0327 432.89253 437.50126 441.13264 444.71919 447.2746 452.3944 457.00315 464.8577 471.77079 475.86845 480.98826 484.59275 489.20149 496.60774 503.5208 507.61848 510.94499 517.347 521.9557 525.5602 530.42 538.9022 542.4888 549.40188 556.31497 559.9015">GradientBoosting,NeuralNetworks(NN),</tspan><tspan y="-381.13114" x="380.98603 387.6391 392.24784 397.11659 401.71635 406.32508 408.8805 414.0003 417.58686 420.14228 424.751 429.87083 434.47956 443.10523 450.0183 456.9314 465.5481 472.3267 476.42436 480.522 485.6418 489.2463 492.8508 496.94847 501.8172 511.46504 518.3781 525.2912 533.9169 539.6733 544.7931 551.44619 559.8925">ConvolutionalNN,RecurrentNN,LSTM,</tspan><tspan y="-369.17616" x="380.98603 386.86799 390.47248 395.0812 400.20103 403.8324 406.64787 411.2566 414.86109 422.53633 426.63398 430.23847 433.86985 439.50074 446.27934 450.88807 456.00788 461.1277 465.73643 476.47816 481.73246 486.3412 489.94569 494.04335 497.6747 501.26127">Transformers,RandomForest)</tspan></text>
<text fill="#404040" xml:space="preserve" transform="matrix(1 0 -0 1 0 792)" font-size="9.9626" font-family="SFBX1000" font-weight="bold"><tspan y="-353.23616" x="380.98603 388.81663 393.53889 399.26737 404.99586 409.7181 415.2872 424.83137 434.37553 437.5536 443.91969">Programming</tspan></text>
<text fill="#404040" xml:space="preserve" transform="matrix(1 0 -0 1 0 792)" font-size="8.9664" font-family="SFRM0900"><tspan y="-353.23616" x="465.71205 469.29859 475.5661 480.4259 484.01246 489.13227 493.741 498.8608 519.24148 523.96676 528.3244 532.6731 537.2818 540.9132 545.01089 548.61538 551.1708 556.2906 559.87716">(Python,Javascript,</tspan><tspan y="-341.28117" x="380.98603 387.6391 392.24784 398.9009 406.06507 413.22923 423.9889 430.90199 437.55506 446.0014 451.75785 461.49537 468.14845 473.26826 478.38807 488.1166 494.13307 498.7418 503.8616 508.9814 513.59017 517.22158 527.98129 534.2488 539.1086 542.6951 547.30386 550.9083 554.746 559.8658">C/C++,HTML,CSS,Pandas,Pytorch,</tspan><tspan y="-329.32618" x="380.98603 386.86799 390.96565 396.08546 399.71684 404.32557 407.93006 410.48997 413.04988 417.40754 424.0606 437.92268 443.04249 450.20664 453.2821 459.04753 463.1362 467.74494 471.34944 476.46925 490.34028 497.25337 502.37318 510.0484 514.9172 519.00588 532.8679 539.13546 543.99526 549.124 551.67947 556.28817 559.8657">Tensorflow,SK-Learn,Numpy,Pyplot,</tspan><tspan y="-317.37019" x="380.98603 387.63908 394.866 401.39353 406.2623 410.87104 414.5024 418.08897 423.71089 430.7495 435.35826 438.9448 443.55354 448.67335 452.27784 454.83326 458.67985 463.53965 467.17103 472.79295 481.2393 486.99574 493.01219 495.5676 499.92527 506.57835 512.20028 518.0912 527.5597 535.755 540.8748 545.4835">XGBoost,Databricks,MLFlow,AWSS3)</tspan></text>
<text fill="#0072bc" xml:space="preserve" transform="matrix(1 0 -0 1 0 792)" font-size="9.9626" font-family="SFBX1000" font-weight="bold"><tspan y="-286.48619" x="380.98603 388.36833 398.94859 407.60609 416.19386 424.98088 435.16264 447.88487 456.8512 465.4589 474.42524 483.03294 491.6207">AWARDS&#x0026;HONORS</tspan></text>
<text fill="#404040" xml:space="preserve" transform="matrix(1 0 -0 1 0 792)" font-size="9.9626" font-family="SFRM1000"><tspan y="-266.67518" x="380.98603 388.59745 393.57875 399.10798 404.91618 409.33958 413.2449 418.77415 424.30339 429.8326 435.91975 441.44898 445.32444 450.85368 456.3829 460.8063 466.06657 473.25956 479.89466 486.81867 491.79997 495.7053 542.4797 547.461 552.4423 557.42367">DobberpuhlStudentAward2022</tspan></text>
<text xml:space="preserve" transform="matrix(1 0 -0 1 0 792)" font-size="9.9626" font-family="SFTI1000" font-style="italic"><tspan y="-256.27217" x="380.98603 386.0769 391.1678 394.22633 399.3172 404.40809">$2,000</tspan></text>
<text fill="#404040" xml:space="preserve" transform="matrix(1 0 -0 1 0 792)" font-size="9.9626" font-family="SFRM1000"><tspan y="-240.50016" x="380.98603 388.17903 395.65098 405.74308 413.07557 417.49897 421.42424 425.85758 430.82893 434.73426 438.88868 447.73545 453.26469 458.7939 464.32316 470.13136 475.11265 479.01799 486.21098 494.03163 497.93696 502.91825 508.16853 542.4896 547.47097 552.4523 557.4336">CHPResearchSupportGrant2021</tspan></text>
<text xml:space="preserve" transform="matrix(1 0 -0 1 0 792)" font-size="9.9626" font-family="SFTI1000" font-style="italic"><tspan y="-230.09716" x="380.98603 386.0769 391.1678 394.22633 399.3172 404.40809">$2,000</tspan></text>
<text fill="#404040" xml:space="preserve" transform="matrix(1 0 -0 1 0 792)" font-size="9.9626" font-family="SFRM1000"><tspan y="-214.32515" x="380.98603 384.58253 387.3521 390.1217 392.8913 398.42054 403.40184 406.17143 413.4142 420.18879 425.71803 430.6993 437.90226 445.09526 449.2397 454.76893 457.5385 461.9619 466.9532 471.3766 479.67546 484.09886 489.34913 496.5421 502.07136 506.2158 511.74504 516.7263 519.4959 524.47726 528.38259 532.30789 537.8371 540.6067">IllinoisEng.AchievementScholarship</tspan></text>
<text xml:space="preserve" transform="matrix(1 0 -0 1 0 792)" font-size="9.9626" font-family="SFTI1000" font-style="italic"><tspan y="-203.92215" x="380.98603 386.0769 391.1678 394.22633 399.3172 404.40809">$1,000</tspan></text>
<text fill="#404040" xml:space="preserve" transform="matrix(1 0 -0 1 0 792)" font-size="9.9626" font-family="SFRM1000"><tspan y="-188.15015" x="380.98603 388.17903 393.70826 398.68955 403.67085 409.75798 416.8115 421.2349 427.332 433.68815 437.6134 445.36433 456.43278 465.5585 470.26084 478.83863 485.48368 492.3977 497.379 501.28434 542.5096 547.4909 552.4722 557.45358">Chao,BeiTse&#x0026;MayAward2020</tspan></text>
<text xml:space="preserve" transform="matrix(1 0 -0 1 0 792)" font-size="9.9626" font-family="SFTI1000" font-style="italic"><tspan y="-177.74715" x="380.98603 386.0769 391.1678 394.22633 399.3172 404.40809">$6,000</tspan></text>
<text fill="#404040" xml:space="preserve" transform="matrix(1 0 -0 1 0 792)" font-size="9.9626" font-family="SFRM1000"><tspan y="-161.97515" x="380.98603 388.73695 396.2089 406.85893 414.1914 418.6148 422.54008 426.96348 431.94477 435.8501 440.00453 448.8513 456.67195 460.57728 465.55857 470.80885">OURResearchGrant</tspan></text>
<text xml:space="preserve" transform="matrix(1 0 -0 1 0 792)" font-size="9.9626" font-family="SFTI1000" font-style="italic"><tspan y="-153.50815" x="380.98603 386.0769 391.1678 394.22633 399.3172 404.40809">$2,500</tspan></text>
<text fill="#404040" xml:space="preserve" transform="matrix(1 0 -0 1 0 792)" font-size="9.9626" font-family="SFRM1000"><tspan y="-137.73615" x="380.98603 387.7606 393.28984 398.27113 401.0407 406.56996 410.99336 415.41676 419.32209 422.09169 427.6209 435.91975 443.3917 446.1613 450.08656 452.85615 457.83744 463.36668 468.34797 472.2533 480.84107 486.3703 490.51475 496.04399 501.02528 503.79487 508.77616 512.6815 516.6068 522.13607 524.90567 542.4996 547.4809 552.4622 557.44357">EngineeringVisionaryScholarship2019</tspan></text>
<text xml:space="preserve" transform="matrix(1 0 -0 1 0 792)" font-size="9.9626" font-family="SFTI1000" font-style="italic"><tspan y="-127.333148" x="380.98603 386.0769 391.1678 396.25868 399.3172 404.40809 409.49897">$24,000</tspan></text>
<text fill="#404040" xml:space="preserve" transform="matrix(1 0 -0 1 0 792)" font-size="9.9626" font-family="SFRM1000"><tspan y="-111.56114" x="380.98603 388.45799 392.05448 404.49775 411.9697 414.7393 419.72059 428.57734 435.3519 440.88114 445.86244 448.63203 454.16127 458.58467 463.00807 466.9134 469.68299 475.21223 483.51106 491.3317 495.23704 500.21833 505.4686">AIMHighEngineeringGrant</tspan></text>
<text xml:space="preserve" transform="matrix(1 0 -0 1 0 792)" font-size="9.9626" font-family="SFTI1000" font-style="italic"><tspan y="-101.15814" x="380.98603 386.0769 391.1678 396.25868 399.3172 404.40809 409.49897">$20,000</tspan></text>
<text fill="#404040" xml:space="preserve" transform="matrix(1 0 -0 1 0 792)" font-size="9.9626" font-family="SFRM1000"><tspan y="-85.38614" x="380.98603 388.17903 393.70826 398.68955 404.21879 408.64219 413.06559 415.83518 418.60478 423.58607 427.4914 430.261 437.50379 443.03303 447.18745 452.71669 457.69798 460.46757 465.44886">Chancellor&#x2019;sScholar</tspan></text>
<text xml:space="preserve" transform="matrix(1 0 -0 1 0 792)" font-size="9.9626" font-family="SFTI1000" font-style="italic"><tspan y="-76.919139" x="380.98603 386.0769 391.1678 394.22633 399.3172 404.40809">$4,000</tspan></text>
<text fill="#404040" xml:space="preserve" transform="matrix(1 0 -0 1 0 792)" font-size="9.9626" font-family="SFRM1000"><tspan y="-61.147138" x="380.98603 388.17903 395.372 405.89253 411.42176 415.84516 420.82646 424.73179 432.47273 437.454 443.8201 448.8014 453.78269 457.10023 462.0815 467.0628 470.38035 475.36164 480.34294 483.66047 488.64176">ACTScoreof36-36-36-36</tspan></text>
</svg>
