<svg xmlns="http://www.w3.org/2000/svg" xmlns:xlink="http://www.w3.org/1999/xlink" version="1.1" width="612pt" height="792pt" viewBox="0 0 612 792">
<text fill="#404040" xml:space="preserve" transform="matrix(1 0 -0 1 0 792)" font-size="29.7484" font-family="SFBX2986" font-weight="bold"><tspan y="-698.339" x="62.301 79.40633 93.26908 107.78629 123.19596 150.59426 172.45932 184.7454 200.98804 218.09337 227.49387 236.0614 251.47107">SevanBrodjian</tspan></text>
<text fill="#0072bc" xml:space="preserve" transform="matrix(1 0 -0 1 0 792)" font-size="14.3462" font-family="SFBX1440" font-weight="bold"><tspan y="-718.844" x="386.024 397.41487 408.80574 420.1966 424.58653 430.81278 437.98588 445.43156 453.32197 461.64277 470.4083 474.79823 483.56376 490.73686">www.sevanb.net</tspan></text>
<text fill="#404040" xml:space="preserve" transform="matrix(1 0 -0 1 0 792)" font-size="9.9626" font-family="SFRM1000"><tspan y="-703.9" x="386.024 393.21699 398.74623 401.5158 405.9392 410.9205 415.9018 420.8831 426.9702 430.5667">Chicago,IL</tspan></text>
<text fill="#0072bc" xml:space="preserve" transform="matrix(1 0 -0 1 0 792)" font-size="9.9626" font-family="SFRM1000"><tspan y="-688.95706" x="386.024 389.94926 394.37266 399.075 404.0563 409.31657 414.8458 418.75114 423.73243 428.7137 436.46464 441.44593 449.74479 454.72608 457.49568 460.26527 463.03486 467.45826 472.43955">sevanbro7@gmail.com</tspan></text>
<text fill="#0072bc" xml:space="preserve" transform="matrix(1 0 -0 1 0 792)" font-size="9.9626" font-family="SFRM1000"><tspan y="-674.01309" x="386.024 391.00529 393.77488 399.3041 404.2854 408.21067 412.63407 417.33644 422.31773 427.84696 431.1645">/in/sevan-b</tspan></text>
<text fill="#0072bc" xml:space="preserve" transform="matrix(1 0 -0 1 0 792)" font-size="9.9626" font-family="SFBX1000" font-weight="bold"><tspan y="-635.9941" x="54 61.521764 70.17926 78.009868 85.53163 94.11939 98.46309 105.984859 114.951198 123.22015">EXPERIENCE</tspan></text>
<text xml:space="preserve" transform="matrix(1 0 -0 1 0 792)" font-size="11.9552" font-family="SFBX1200" font-weight="bold"><tspan y="-613.5801" x="54 64.14996 75.35199 81.48501 86.97244 93.10546">Ameren</tspan></text>
<text fill="#404040" xml:space="preserve" transform="matrix(1 0 -0 1 0 792)" font-size="8.9664" font-family="SFRM0900"><tspan y="-598.6361" x="54 60.913095 64.23963 71.152729 80.8723 87.650897 91.748538 95.37993 99.47757 104.086299 107.69079 111.53738 119.723697 125.74015 130.34888 133.95337 138.81316 144.43509 147.76163 156.59352 162.21546 169.37961 173.47725 177.06381 183.71688 188.3256 192.93434 197.54308 205.21833 211.36927 217.63678 221.24127 225.33892 228.9703 233.06795 237.92774">UIUCResearchPark,IL|Oct.2020-Present</tspan></text>
<text xml:space="preserve" transform="matrix(1 0 -0 1 0 792)" font-size="11.9552" font-family="SFBI1200" font-weight="bold" font-style="italic"><tspan y="-583.6931" x="54 64.07823 69.697177 75.31612 81.532817 87.737567 98.09077 108.30051 115.198657 119.69381 131.42186 139.00145 145.20619 149.3666 155.57134 163.15093 167.64609 171.79454 177.41349 186.73853 201.90969 212.11943 219.01758 223.51273 235.24077 242.82036 249.0251 253.17356 259.3783 266.9579 272.48118 283.5158 288.93153 296.5111 301.00627 307.211 313.00929">Assoc.DataScientist&#x0026;DataScienceIntern</tspan></text>
<text fill="#404040" xml:space="preserve" transform="matrix(1 0 -0 1 0 792)" font-size="9.9626" font-family="SFRM1000"><tspan y="-569.3461" x="72.432">&#x2022;</tspan></text>
<text fill="#0072bc" xml:space="preserve" transform="matrix(1 0 -0 1 0 792)" font-size="9.9626" font-family="SFRM1000"><tspan y="-569.3461" x="83.265 89.49162 93.915019">Led</tspan></text>
<text fill="#404040" xml:space="preserve" transform="matrix(1 0 -0 1 0 792)" font-size="9.9626" font-family="SFRM1000"><tspan y="-569.3461" x="102.30353 110.1441 115.67334 118.44294 123.42424 128.95348 132.27103 138.07921 142.50261 146.40795 149.4565 154.43779 158.34313 166.64197 169.41158 174.94081 182.78137 186.65683 191.08023 196.06153 207.21964 212.20093 218.10875 225.94931 228.71892 233.97916 237.84465 242.27802 246.18335 251.71259 258.4971 262.40245 267.38374 272.91297 277.89427 280.66386 286.19309 294.03364 297.08219 300.98753 305.9688 317.12693 322.65617 328.1854 333.71464 338.13804 342.04338 347.02467 350.93 355.9113">ahigh-performingteamof8internsrangingfromundergrad</tspan><tspan y="-555.0001" x="83.265 87.14045 96.67466 103.44923 108.97847 116.5899 123.91241 129.44165 133.36692 136.13652 141.66576 151.18999 158.66194 163.64324 166.41284 169.18245 178.15876 183.68799 188.11139 192.01673 197.54596 210.3977 214.27317 223.80736 229.3366 233.76 236.5296 239.29921 244.28052 248.70392 257.16218 266.69639 271.11979 276.64903 280.52449 284.39994 287.16954 292.69877 297.68006 300.9976 305.421 310.95024 315.93153 324.90785 334.03358 339.01487 343.1593 348.68855 351.45814 356.98738">toPhD,usingAgileScrumtodeliver3cutting-edgeMachine</tspan><tspan y="-540.6541" x="83.265 89.49162 93.915019 98.89632 102.80166 108.3309 111.1005 116.629749 124.05188 129.58112 133.48645 139.01569 142.06424 146.48764 150.91104 154.7865 161.1526 166.1339 171.66313 179.62325 183.4987 189.02794 195.89218 199.76764 204.19104 209.17234 217.47118 220.24079 226.59693 234.89577 239.87706 243.80233 250.11862 254.04389 259.57313 263.99653 268.41993 272.84333 276.7686 280.69386 283.7424 289.27165 294.48207 298.40733 303.93656 312.2354 320.53428 324.95768 331.29389 335.16935 342.59147 348.1207 353.102 356.97746">Learningprojectsandtheteam&#x2019;smostsuccessfulsummertodate</tspan></text>
<text fill="#404040" xml:space="preserve" transform="matrix(1 0 -0 1 0 792)" font-size="9.9626" font-family="SFRM1000"><tspan y="-526.3081" x="72.432">&#x2022;</tspan></text>
<text fill="#0072bc" xml:space="preserve" transform="matrix(1 0 -0 1 0 792)" font-size="9.9626" font-family="SFRM1000"><tspan y="-526.3081" x="83.265 90.87643 95.29982 100.28112 104.70451 107.47411 112.455417 118.26361 122.687007">Developed</tspan></text>
<text fill="#404040" xml:space="preserve" transform="matrix(1 0 -0 1 0 792)" font-size="9.9626" font-family="SFRM1000"><tspan y="-526.3081" x="131.86257 140.50014 146.02938 148.79898 153.78028 159.30951 162.62706 167.60836 172.03176 176.45516 181.98439 185.88973 190.87102 195.29442 204.20099 211.81241 216.23581 220.65921 229.83477 235.364 240.89324 244.79857 250.05883 252.82843 257.54075 262.52204 268.93794 276.40989 281.93913 286.9204 289.69 294.95027 298.87553 301.6451 309.22666 316.55915 324.0311 335.14936 343.4482 348.70848 354.2377 358.6611">ahigh-accuracyDeepSurvivalAnalysisRNNmodel</tspan><tspan y="-511.9621" x="83.265 88.79424 92.699588 97.12298 102.65222 105.42182 109.845218 113.720668 116.490268 122.01951 130.93604 135.35944 143.65828 149.18752 151.95713 156.65947 161.65073 166.07413 174.43276 179.41405 183.2895 187.16497 191.0703 193.8399 197.71537 200.48497 205.46627 210.9955 217.84978 221.75511 226.17852 230.10378 235.63301 238.40262 242.27808 245.04769 250.57692 259.49345 262.26304 271.7275 275.66273 281.19197 286.7212 290.64646 294.5219 299.5032 304.75349 308.62895 311.39854 316.37983 323.08467 327.50807 332.48936 336.4146 344.2253 348.15058 352.8529 358.11317">predictingemployeeattrition,resultinginsubstantialcostsav-</tspan><tspan y="-497.6161" x="83.265 86.0346 91.56384 96.54514 103.78795 109.31719 114.846439 122.597339 126.472789 134.77164 140.30088 145.28217 149.15763 154.13892 157.45647 162.9857 166.89104 169.66065 174.64196 179.06536 187.91214 190.68175 196.21099 200.13625 202.90586 207.88715 213.14739 217.02285">ingsduetodata-driveninsights</tspan></text>
<text fill="#404040" xml:space="preserve" transform="matrix(1 0 -0 1 0 792)" font-size="9.9626" font-family="SFRM1000"><tspan y="-483.27009" x="72.432">&#x2022;</tspan></text>
<text fill="#0072bc" xml:space="preserve" transform="matrix(1 0 -0 1 0 792)" font-size="9.9626" font-family="SFRM1000"><tspan y="-483.27009" x="83.265 89.6311 93.536449 98.517749 101.287349 106.81659 111.23998 121.55128 126.53258 132.06182 142.36313 147.89237 152.31577 157.845 160.61461 165.3269 170.30821 174.73162">Trainedanddeployed</tspan></text>
<text fill="#404040" xml:space="preserve" transform="matrix(1 0 -0 1 0 792)" font-size="9.9626" font-family="SFRM1000"><tspan y="-483.27009" x="185.0429 189.4663 194.99553 200.52477 203.84232 207.71778 212.69907 216.01662 220.44002 225.96926 236.28054 245.40628 256.405 261.93424 264.70384 270.51203 274.93544 277.70503 280.4746 286.00386 290.42726 299.13456 304.6638 308.58906 311.35865 316.88789 326.6512 333.42579 338.68605 342.5615 348.09074 353.07203 358.60127">end-to-endMLpipelinesusingPython,</tspan><tspan y="-468.92408" x="83.265 88.79424 96.54514 102.77177 109.436748 114.418048 119.94729 129.3719 133.7953 136.56491 141.5462 147.07544 156.50005 160.3755 165.63574 170.61704 173.38665 181.20728 185.08274 193.9594 198.94069 204.46993 208.34539 213.32668 221.62552 226.60681 230.48227 238.80104 244.33028 248.23561 253.49585 257.91926 262.34266 266.2679 270.19319 274.61659 282.43724 285.20683 294.63145 297.68 302.6613 306.56663 310.99003 315.41343 320.3947 324.31999 328.19544 330.96504 336.49427 345.3809 350.35224 355.89143">SQL,andcloudtoolstoautomateprocessesinforecastingand</tspan><tspan y="-454.57807" x="83.265 87.68839 90.45799 95.43929 99.364559 103.28982 106.05942 108.824039 111.58866 116.012058 120.993358 124.868808 127.638408 132.6197 138.14894 144.2361 148.14144 152.56484 156.50006 162.0293 164.7989 168.67436 171.44397 176.9732 185.27205 188.04166 196.88845 202.41768 207.39897 211.82238 216.24578 221.77501 229.01782 233.99912 240.37519 248.67403 253.65532 259.18458 262.5021 268.03135 273.01264 278.54188 282.4472 289.69 293.61528 298.3176 303.2989 307.7223 316.57905 322.38725 326.81065 334.0335 340.94755 345.37095 349.79435">classification,resultingindozensofman-hourssavedperweek</tspan></text>
<text fill="#404040" xml:space="preserve" transform="matrix(1 0 -0 1 0 792)" font-size="9.9626" font-family="SFRM1000"><tspan y="-440.23109" x="72.432">&#x2022;</tspan></text>
<text fill="#0072bc" xml:space="preserve" transform="matrix(1 0 -0 1 0 792)" font-size="9.9626" font-family="SFRM1000"><tspan y="-440.23109" x="83.265 88.79424 94.60244 99.02583 104.00713 107.912479 113.44172 117.86511 122.84641 128.37566 132.79906">Spearheaded</tspan></text>
<text fill="#404040" xml:space="preserve" transform="matrix(1 0 -0 1 0 792)" font-size="9.9626" font-family="SFRM1000"><tspan y="-440.23109" x="141.43663 145.31209 150.84133 158.38303 163.91226 168.33567 173.31697 177.74037 180.50998 185.49127 191.02051 199.31935 203.74275 208.99304 215.98679 220.96808 227.12497 231.00043 236.52967 244.0614 249.59064 254.57193 260.10118 265.36143 270.89067 275.04508 280.5743 284.47966 289.46095 294.7112 303.0798 309.85438 315.11463 318.99009 324.51933 329.5006 338.13819 343.66743 348.6487 352.80314 358.0634">thedevelopmentoftheS3SynchronyPythonpack-</tspan><tspan y="-425.88508" x="83.265 88.2463 93.2276 100.35086 107.54386 113.073108 115.842708 119.987148 128.21625 133.74549 137.65082 142.35317 147.61342 150.38303 155.91226 160.33567 166.96079 171.94208 177.47132 181.34677 186.32807 194.6269 199.6082 203.48366 206.25327 213.37653 218.35784 222.78124 226.68657 230.61183 233.38144 238.36273 243.89197 246.66158 252.19081 259.87199 262.92054 267.89189 274.49708 280.8632 291.10475 299.33384 304.86308 312.54423 319.7372 322.5068 326.38227 334.6014 338.75584 344.28507 348.70848 352.8529 358.11317">agewhichprovidesautomaticversioningforAWSS3withcheck-</tspan><tspan y="-411.53907" x="83.265 87.19026 92.719509 101.01835 108.00213 112.98343 118.51267 127.10043 130.97589 136.50513 143.98705 149.79523 154.77652 158.65198 163.63327 171.67308 174.44269 177.2123 182.74153 186.64687 191.62816 195.5335 203.85227 208.27567 213.8049 218.7862 224.31543 227.08504 229.85465 235.38388 243.42369 247.29915 252.82839 260.3103 265.2916 269.19694 274.17823 279.70747 285.2367 288.0063 294.99009 298.03865 303.56788 306.33747 312.1656 317.14689 322.67613 327.6574 333.18666 337.0621 339.8317 344.813 353.40077 358.38206">sumsandtheboto3libraryenablingthegroup&#x2019;sfulladoptionof</tspan><tspan y="-397.19306" x="83.265 88.79424 97.09309 100.14164 105.12294 112.345829 117.87507 122.85637 126.73182 135.04064 138.9659 142.84136 147.82265 151.72798 156.70928 161.69057">S3fordatastorage</tspan></text>
<text xml:space="preserve" transform="matrix(1 0 -0 1 0 792)" font-size="11.9552" font-family="SFBX1200" font-weight="bold"><tspan y="-367.90306" x="54 63.56416 70.10365 77.57565 89.16024 95.87907 104.47485 114.62482 125.82684 131.95986 137.4473 141.17733 147.15493">BankofAmerica</tspan></text>
<text fill="#404040" xml:space="preserve" transform="matrix(1 0 -0 1 0 792)" font-size="8.9664" font-family="SFRM0900"><tspan y="-352.95906" x="54 60.65307 65.77288 68.32831 72.42595 77.034679 81.6434 86.25213 91.87406 95.2006 104.03251 109.663417 118.109767 122.458469 130.39373 134.99349 139.60222 144.21096 151.89516 159.5704 166.4835 171.60332 176.21205 182.86511 187.47385 192.08258 196.69132">Chicago,IL|May2022&#x2013;Aug.2022</tspan></text>
<text xml:space="preserve" transform="matrix(1 0 -0 1 0 792)" font-size="11.9552" font-family="SFBI1200" font-weight="bold" font-style="italic"><tspan y="-338.01506" x="54 63.63589 70.18734 75.71064 81.91539 87.71366 93.3326 98.84395 105.0487 112.28159 118.079868 122.22832 126.72347 138.11678 147.84832 155.4279 162.32605 165.79306 172.34452 177.96346">CybersecurityAnalyst</tspan></text>
<text fill="#404040" xml:space="preserve" transform="matrix(1 0 -0 1 0 792)" font-size="9.9626" font-family="SFRM1000"><tspan y="-323.66905" x="72.432">&#x2022;</tspan></text>
<text fill="#0072bc" xml:space="preserve" transform="matrix(1 0 -0 1 0 792)" font-size="9.9626" font-family="SFRM1000"><tspan y="-323.66905" x="83.265 90.458 95.4393 100.968547 106.49779 112.02703 116.450428 120.325878 124.74927">Conducted</tspan></text>
<text fill="#404040" xml:space="preserve" transform="matrix(1 0 -0 1 0 792)" font-size="9.9626" font-family="SFRM1000"><tspan y="-323.66905" x="134.82144 137.59105 143.12029 146.43784 151.96707 156.39048 161.91971 165.79517 175.85739 179.76273 184.18613 188.11139 192.54476 197.51609 201.42142 205.57582 215.63805 220.61934 230.69152 234.61678 239.04018 243.46358 248.99282 252.89815 255.66776 259.26426 269.06745 272.97279 275.74238 279.66764 284.9279 293.38615 298.36744 302.2927 306.21797 311.4782 315.9016 318.6712 323.6525 327.52796 331.95137 342.02354 349.21653 351.9861 355.86158">in-depthresearchonsecurityrisksassociatedwith</tspan><tspan y="-309.32304" x="83.265 87.96735 92.94865 96.85399 99.62359 104.60489 110.13413 118.46287 122.88626 127.86756 131.7729 137.58109 142.56238 146.46772 151.449 155.32447 164.14138 169.67061 173.57595 178.83618 184.36542 189.89466 194.31806 198.19351 206.51229 211.49358 217.02281 226.95552 230.88079 235.30419 239.20952 244.46977 247.23938 251.66278 256.08619 260.01145 267.44355 271.86695 277.39619 282.37748 287.9067 290.6763 293.4459 298.97514 308.3599 312.23536 317.7646 326.58149 330.45695 334.88035 339.86164 352.56398 356.43943">variouscorporateproductsandservices,enablingtheteamto</tspan><tspan y="-294.97703" x="83.265 87.68839 92.39074 97.37204 100.14164 105.67088 110.65218 114.52763 122.278537 126.153987 131.68323 135.58856 140.01197 147.75292 151.62837 154.39798 162.69683 167.12023 174.36304 182.66188 187.64318 191.54851 199.29943 203.22469 207.64809 211.55342 216.81368 219.58329 224.00669 228.43009 235.6729 241.48108 245.90448 253.12737 260.0414 264.4648 268.8882 274.14848">evaluatethreetimesmoreservicesperweek.</tspan></text>
<text fill="#404040" xml:space="preserve" transform="matrix(1 0 -0 1 0 792)" font-size="9.9626" font-family="SFRM1000"><tspan y="-280.631" x="72.432">&#x2022;</tspan></text>
<text fill="#0072bc" xml:space="preserve" transform="matrix(1 0 -0 1 0 792)" font-size="9.9626" font-family="SFRM1000"><tspan y="-280.631" x="83.265 90.87643 95.29982 103.59866 108.57996 114.10921 118.03447 121.90992 125.81526 130.79656 134.67201 139.09542">Demonstrated</tspan></text>
<text fill="#404040" xml:space="preserve" transform="matrix(1 0 -0 1 0 792)" font-size="9.9626" font-family="SFRM1000"><tspan y="-280.631" x="147.61344 153.14267 157.048 162.0293 166.4527 170.32816 173.09777 177.52117 182.50246 188.25089 192.67429 197.93454 203.74272 208.16613 212.07146 215.94692 218.71652 222.64179 230.05397 232.82358 241.3416 245.765 251.02526 256.8235 261.2469 265.15223 269.07749 273.5009 277.9243 283.45353 287.35887 290.12846 293.73493 301.974 307.22428 315.4733 321.00254 325.98384 329.88917 333.76463 336.5342 340.9576 343.7272 349.25645 354.23774 358.1132">practicalexpertiseincybersecuritybyparticipat-</tspan><tspan y="-266.285" x="83.265 86.0346 91.56384 99.862689 102.632289 111.48904 115.4143 118.1839 126.20379 131.73303 134.50264 139.48394 143.35939 147.78279 156.62958 162.43776 166.86116 172.11145 175.98691 180.41031 184.33557 188.21103 190.98064 196.50988 204.81868 209.24208 214.50234 218.92574 222.83107 227.25447 230.02408 233.94934 238.37274 245.61556 250.59685 259.44364 267.75245 275.50337 280.4747 283.25425 289.34138 295.568 298.3376 303.58787 309.1171 317.6949 321.62016 326.04356 329.919 335.44825 340.97749">inginsimulatedpentestingexercisesonaKaliLinuxsetup.</tspan></text>
<text xml:space="preserve" transform="matrix(1 0 -0 1 0 792)" font-size="11.9552" font-family="SFBX1200" font-weight="bold"><tspan y="-236.995" x="54 59.009229 68.71685 78.81899 88.8494 96.93112 107.081089 121.12845 128.60045 134.73346 145.93549 149.66551 155.64311 162.36194 169.83394 177.30594 184.77794 190.75554 195.97997 202.69879 212.66944 220.75115 227.29064 235.13324 241.85207 247.33951 253.879 259.10343 265.82225 271.30967">ICORLABSemiconductorLaboratory</tspan></text>
<text fill="#404040" xml:space="preserve" transform="matrix(1 0 -0 1 0 792)" font-size="8.9664" font-family="SFRM0900"><tspan y="-222.051" x="54 60.65307 65.77288 70.38161 78.05685 83.17666 87.785388 90.34081 94.94954 100.06935 105.70026 109.026798 117.84973 123.48064 128.72599 132.82363 137.94344 144.5965 149.20523 153.81397 158.4227 166.09795 173.7732 180.6863 185.81508 190.41484 197.0679 201.67664 206.28537 210.8941">Champaign,IL|Feb.2020&#x2013;Aug.2021</tspan></text>
<text xml:space="preserve" transform="matrix(1 0 -0 1 0 792)" font-size="11.9552" font-family="SFBI1200" font-weight="bold" font-style="italic"><tspan y="-207.107" x="54 64.25756 71.83716 78.735309 84.940059 90.05688 96.26163 101.36649 108.26464 115.16279 122.39568 129.29384 133.789 144.8356 154.10088 160.30562 165.92456 171.44786 178.34601 183.46285 189.66759 196.56574 202.77048">UndergraduateResearcher</tspan></text>
<text fill="#404040" xml:space="preserve" transform="matrix(1 0 -0 1 0 792)" font-size="9.9626" font-family="SFRM1000"><tspan y="-192.163" x="54 59.529245 62.298849 70.31874 75.847988 78.617588 83.598888 87.474338 90.243938 95.225238 104.081989 109.063289 115.42938 125.67094 128.44054 133.96977 138.39318 141.71073 147.23996 152.22126 157.75049 163.27973 168.26102 173.24231 182.0891 188.86367 191.63327 196.05667 200.48007 204.35553 208.26087 213.24216 218.7714 221.541 225.9644 233.21718 235.98679 242.07395 248.84851 252.445 258.53218 265.30674 269.21208 274.19337 277.2419 284.4349 291.6279 296.6092 305.46595 312.51948 317.2218 322.48207 326.3874 331.36869">SimulationofWide-bandgapElectronics||PI:Prof.CanBayram</tspan></text>
<text fill="#404040" xml:space="preserve" transform="matrix(1 0 -0 1 0 792)" font-size="9.9626" font-family="SFRM1000"><tspan y="-177.817" x="72.432">&#x2022;</tspan></text>
<text fill="#0072bc" xml:space="preserve" transform="matrix(1 0 -0 1 0 792)" font-size="9.9626" font-family="SFRM1000"><tspan y="-177.817" x="83.265 90.87643 95.29982 99.22508 101.99468 106.97598 112.505229 116.92862">Designed</tspan></text>
<text fill="#404040" xml:space="preserve" transform="matrix(1 0 -0 1 0 792)" font-size="9.9626" font-family="SFRM1000"><tspan y="-177.817" x="125.347019 130.87625 135.5786 140.5599 144.9833 150.64208 158.94092 161.71053 166.13393 170.03926 175.2995 179.7229 182.49251 186.91591 191.33931 195.21477 199.1201 204.1014 209.63063 212.40024 219.7128 225.52098 230.22333 237.13738 241.56078 248.35527 253.8845 258.3079 263.56816 266.33775 270.76115 275.18455 281.99897 286.42237 291.40367 299.7025 305.5107 310.492 314.41728 318.84068 327.24909 332.23039 338.1681 345.36109 348.13069 353.6599 358.0833">novelmicroelectronicpowerdevicescomposedofwide-</tspan><tspan y="-163.47101" x="83.265 88.79424 93.77554 99.30479 104.83403 109.81533 114.79663 123.44417 131.74301 136.7243 140.59976 145.02317 148.9285 151.6981 156.6794 159.449 163.37427 169.30202 172.07163 177.60086 182.03423 184.80384 190.33307 195.8623 198.63191 204.16115 212.26074 220.08139 225.06269 235.65293 243.12488 249.89945 262.14347 266.01893 269.92427 274.90556 280.43479 284.36006 287.12965 291.0549 294.93037 299.91166 303.817 310.86054 321.73973 329.35115 332.12074 337.10203 345.40089 350.38218 355.9114">bandgapmaterials,includingGaNHEMtransistors&#x0026;Diamond</tspan><tspan y="-149.12502" x="83.265 90.039569 92.809169 103.598659 111.21008 113.97968 119.23994 124.76918 129.19258 133.11785 139.205 144.73424 148.6595 151.42911 156.9683 165.26715 170.79639 176.05664 181.58588 186.56717 192.0964 196.02167 201.28192 208.52474 214.05397 218.47737 223.72766 227.60312 232.58441 238.11365 242.01898 247.54822 254.801 258.67646 266.97529 271.95658 276.37998 281.9092 286.3326 290.23796 295.21925 299.0947 306.83564 315.1345 319.5579 323.48316 332.3399 335.10453 337.86915 340.63874 345.06214">PiNDiodes,usingSynopsysSentaurustogeneratemeshfiles</tspan></text>
<text fill="#404040" xml:space="preserve" transform="matrix(1 0 -0 1 0 792)" font-size="9.9626" font-family="SFRM1000"><tspan y="-134.77802" x="72.432">&#x2022;</tspan></text>
<text fill="#0072bc" xml:space="preserve" transform="matrix(1 0 -0 1 0 792)" font-size="9.9626" font-family="SFRM1000"><tspan y="-134.77802" x="83.265 88.79424 91.56384 99.58373 105.112979 107.882579 112.86388 116.73933 121.16272">Simulated</tspan></text>
<text fill="#404040" xml:space="preserve" transform="matrix(1 0 -0 1 0 792)" font-size="9.9626" font-family="SFRM1000"><tspan y="-134.77802" x="131.53379 135.95719 138.72679 143.15019 147.5736 151.44905 155.35439 158.124 162.5474 167.52869 175.14012 180.66936 185.09276 190.35301 193.12262 197.54602 206.81125 210.9557 216.48494 221.46623 225.37157 230.35286 234.77626 238.65172 243.07512 246.98046 249.75006 253.67533 257.55079 260.32038 264.74378 273.51087 278.76115 288.86323 296.0562 299.96156 302.73115 306.6066 309.3762 314.90544 324.71858 330.9452 333.71479 337.64006 343.16929 346.48683 349.2564 352.026 357.01728">electricaldevicecharacteristicsbywritingLisp-like</tspan><tspan y="-120.432018" x="83.265 88.79424 93.217639 98.467929 102.343379 107.32468 112.85392 116.75926 122.288509 129.54128 137.1527 141.5761 146.83635 149.60596 154.02936 161.77031 168.9633 176.1563 183.62825 194.55722 198.48249 202.90589 206.81122 209.58083 215.11006 218.98552 226.2383 230.11376 238.4126 243.39389 248.92313 253.90442 256.674 261.93428 266.35768 274.0986 278.522 281.2883 284.0546 286.82087 291.24427 296.22557 300.64897 309.23674 314.20808 320.58415 326.11338 330.53678 334.46205 337.23164 342.21293 347.74217">SentaurusDeviceTCADscriptstoanalyzeefficacyofdesigns</tspan></text>
<text fill="#404040" xml:space="preserve" transform="matrix(1 0 -0 1 0 792)" font-size="9.9626" font-family="SFRM1000"><tspan y="-106.08601" x="72.432">&#x2022;</tspan></text>
<text fill="#0072bc" xml:space="preserve" transform="matrix(1 0 -0 1 0 792)" font-size="9.9626" font-family="SFRM1000"><tspan y="-106.08601" x="83.265 89.49162 93.915019">Led</tspan></text>
<text fill="#404040" xml:space="preserve" transform="matrix(1 0 -0 1 0 792)" font-size="9.9626" font-family="SFRM1000"><tspan y="-106.08601" x="103.09057 106.96602 112.49526 120.564968 126.09421 130.51761 135.49892 139.92232 142.69193 147.67322 153.20246 161.5013 165.9247 171.17499 178.69676 183.67806 190.37293 199.00054 204.26079 207.0304 210.95566 216.4849 221.46619 227.88211 232.8634 238.39264 247.56819 251.44365 260.0613 265.0426 270.57185 274.4473 277.2169 285.51576 288.28535 292.70875 300.77845 304.6539 310.18315 318.25285 326.5517 331.533 336.79325 339.56285 347.58274 353.11198">thedevelopmentofavisualapptooptimizethemaximum</tspan><tspan y="-91.74001" x="83.265 88.51529 94.04453 102.07439 107.87262 112.29601 119.39935 124.38065 130.6272 136.15644 138.92604 143.34944 150.4727 155.454 164.18123 172.36052 179.27457 184.25586 187.30442 191.72782 198.83115 202.7066 208.23584 212.14118 217.12247 222.6517 227.633 236.36023 244.52956 250.05879 253.96413 258.94544 264.47468 268.38 271.1496 275.573 279.44847 284.42976 288.33509 296.79335 301.77464 304.54423 309.5255 314.5068 318.41215 321.18174 325.0572 330.58644 342.08329 349.27629 352.04588 355.92134">numberofdiesonawaferthroughaproprietaryalgorithmwith</tspan><tspan y="-77.39401" x="83.265 88.2463 93.77554 98.47789 103.45919 108.988437 113.41183 117.83522 126.69197 129.74053 134.16393 139.14522 143.02068 148.54991 152.45525 156.87865 164.12146 169.6507 174.63199 181.825 187.35424 192.88347 198.4127 201.18231 203.95192 208.37532 211.14493 219.7327 222.5023 230.80115 236.33039 239.09999 243.52339 251.82224 256.24565 261.4959 265.37138 269.79478 278.64155 283.06495 285.83454 289.76976 294.19316 301.38615 306.91539 311.33879 315.2441">advancedfeaturesnotpubliclyimplementedelsewhere</tspan></text>
<text fill="#0072bc" xml:space="preserve" transform="matrix(1 0 -0 1 0 792)" font-size="9.9626" font-family="SFBX1000" font-weight="bold"><tspan y="-635.995" x="386.024 393.54576 402.33277 411.14967 419.4186 427.1197 435.08979 439.43348 448.04118">EDUCATION</tspan></text>
<text xml:space="preserve" transform="matrix(1 0 -0 1 0 792)" font-size="11.9552" font-family="SFBX1200" font-weight="bold"><tspan y="-613.581" x="386.024 396.35328 403.82527 407.55528 414.28605 420.41908 425.9065 431.2146 434.9446 439.79844 451.37107 458.08988 466.68568 471.6949 475.4249 479.1549 482.88493 490.35694 497.07575 500.80577">UniversityofIllinois</tspan></text>
<text xml:space="preserve" transform="matrix(1 0 -0 1 0 792)" font-size="11.9552" font-family="SFBX1200" font-weight="bold"><tspan y="-598.63699" x="386.024 396.35328 401.8407 409.31269 415.85218 423.32417 429.86366 434.34687 444.05448 451.5265 458.06599 469.268 476.74 483.27949 487.0095 493.7283">Urbana-Champaign</tspan></text>
<text fill="#404040" xml:space="preserve" transform="matrix(1 0 -0 1 0 792)" font-size="9.9626" font-family="SFRM1000"><tspan y="-583.693" x="386.024 393.0775 395.8471 401.37635 407.46348 410.23307 419.0898 426.2828 431.2641 439.56297 445.0922 450.62144 454.4969 458.9203 466.14317 472.91773 478.44697 483.42826 486.19786 491.72709 496.15049 500.57389 504.47923 507.2488 512.7781">B.S.inComputerEngineering</tspan></text>
<text fill="#404040" xml:space="preserve" transform="matrix(1 0 -0 1 0 792)" font-size="9.9626" font-family="SFBX1000" font-weight="bold"><tspan y="-568.749" x="386.024 395.03019 401.90437 410.56187 417.5556 423.2841 426.46217 432.19065 437.91914 443.6476 449.3761 452.55418 458.28266">GPA:3.98/4.00</tspan></text>
<text fill="#404040" xml:space="preserve" transform="matrix(1 0 -0 1 0 792)" font-size="9.9626" font-family="SFRM1000"><tspan y="-568.749" x="464.018 470.10514 477.71656 482.13996 486.56336 490.98677 499.01664 504.81486 509.23826 516.4711 521.45248 526.4338 531.4151">,December2022</tspan><tspan y="-553.80508" x="386.024 393.6354 398.0588 403.0401 408.56935 411.33894 418.58174 424.80836 427.57795 431.5032 435.37867 441.47578 448.94773 451.71733 456.6986 465.54539 473.01734 477.99864 483.52787 488.50917 492.4145">Dean&#x2019;sList,HighHonors</tspan><tspan y="-541.85006" x="386.024 393.21699 398.19828 403.17958 408.7088 411.4784 415.35386 418.12345 423.10475 434.43223 441.90419 446.32759 451.8568 455.76216 460.74345 464.6687 469.0921 471.8617 476.2851 481.81434 486.23774 490.66114 501.23146 508.7034 511.473 515.0695 517.8391 528.3995 535.8714 541.40066 546.9299 549.69949 552.46908 556.89248">CognitiveNeuroscience,A.I.,Applied</tspan><tspan y="-529.895" x="386.024 395.14973 401.37635 407.1646 414.3576 419.3389 422.1085 426.5319 432.06114 434.83073 440.35997 447.3039 451.16938 455.04484 458.64134 464.4296 472.04103 474.8106 477.7147 480.6188 485.0422 488.94755 493.37095 498.62123 502.49668 505.26628 510.24757 516.0358 522.8104 528.0707 533.5999 538.58126 542.45669 545.22628 550.2076 555.7368 559.6621">ML,CalculusIII,DifferentialEquations,</tspan><tspan y="-517.939" x="386.024 392.2506 395.0202 400.54945 404.97285 409.95414 419.75733 427.22929 429.99888 434.98017 439.40357 444.9328 448.83815 453.81944 463.12449 470.7359 473.5055 477.43077 481.85417 485.7595 490.1829 494.05836 504.3796 513.5054 518.4867 522.3621 527.89138 531.81668 541.13168 548.6036 554.1328 559.11416">LinearAlgebra,DiscreteMaths,Ana-</tspan><tspan y="-505.98405" x="386.024 388.79359 393.77488 401.76487 407.2941 410.0637 415.04499 420.57423 425.5555 431.32386 438.09843 442.00376 447.264 451.6874 456.1108 460.03608 463.96134 466.73094 472.26017 477.24147 483.07954 490.83045 496.35969 501.34098 506.60124 510.47669 516.0059 527.30349 534.07809 539.3383 544.5986 548.52389 551.29348 555.71688 559.64218">logSignalProcessing,QuantumPhysics,</tspan><tspan y="-494.02906" x="386.024 393.6354 398.6167 402.49217 414.28788 419.8171 423.69258 427.5979 433.12715 437.55055 441.426 446.95524 450.86058 455.28398 459.20924 469.6799 475.20915 479.63255 487.9314 490.701 495.1244 500.10569 505.63493 511.16416 516.6934 521.1168 524.99227 529.9736 540.6933 547.4679 550.2375 554.6609 559.0843">DataStructures,SemiconductorElec-</tspan><tspan y="-482.07408" x="386.024 389.89945 393.80479 398.78608 404.3153 407.0849 411.5083 415.43357 421.5207 428.99266 431.76225 436.74354 441.72483 445.63017 448.39976 452.2752 457.80445 466.1033 470.02857 476.12568 482.90025 486.80558 491.78688 497.3161 502.2974 507.82664 510.59623 513.36587 516.13546 519.73196">tronics,Algorithms,Probability</tspan></text>
<text fill="#0072bc" xml:space="preserve" transform="matrix(1 0 -0 1 0 792)" font-size="9.9626" font-family="SFBX1000" font-weight="bold"><tspan y="-450.19407" x="386.024 393.40629 403.98655 412.64405 421.2318 430.01884 440.2006 452.92283 461.88917 470.49687 479.4632 488.0709 496.65867">AWARDS&#x0026;HONORS</tspan></text>
<text fill="#404040" xml:space="preserve" transform="matrix(1 0 -0 1 0 792)" font-size="9.9626" font-family="SFRM1000"><tspan y="-430.38206" x="386.024 393.6354 398.6167 404.14595 409.95414 414.37754 418.28288 423.8121 429.34135 434.87059 440.9577 446.48695 450.3624 455.89164 461.42088 465.84428 471.09455 478.29753 484.93263 491.85664 496.83793 500.74327 542.4866 547.4679 552.4492 557.43057">DobberpuhlStudentAward2022</tspan></text>
<text xml:space="preserve" transform="matrix(1 0 -0 1 0 792)" font-size="9.9626" font-family="SFTI1000" font-style="italic"><tspan y="-419.97908" x="386.024 391.11488 396.20576 399.26429 404.35517 409.44606">$2,000</tspan></text>
<text fill="#404040" xml:space="preserve" transform="matrix(1 0 -0 1 0 792)" font-size="9.9626" font-family="SFRM1000"><tspan y="-404.20707" x="386.024 393.21699 400.68894 410.78105 418.11354 422.53694 426.4622 430.8856 435.86689 439.77223 443.92665 452.7734 458.30265 463.83189 469.3611 475.1693 480.1506 484.05595 491.24894 499.06959 502.9749 507.9562 513.20657 542.4966 547.4779 552.4592 557.44058">CHPResearchSupportGrant2021</tspan></text>
<text xml:space="preserve" transform="matrix(1 0 -0 1 0 792)" font-size="9.9626" font-family="SFTI1000" font-style="italic"><tspan y="-393.80409" x="386.024 391.11488 396.20576 399.26429 404.35517 409.44606">$2,000</tspan></text>
<text fill="#404040" xml:space="preserve" transform="matrix(1 0 -0 1 0 792)" font-size="9.9626" font-family="SFRM1000"><tspan y="-378.03208" x="386.024 389.62049 392.39009 395.15968 397.92927 403.4585 408.4398 411.20939 418.45219 425.22676 430.75599 435.73728 442.94023 450.1332 454.27766 459.8069 462.57649 466.99989 471.98118 476.40458 484.71339 489.13679 494.38706 501.58006 507.10929 511.25373 516.78298 521.7643 524.5339 529.5152 533.42056 537.3458 542.87509 545.64468">IllinoisEng.AchievementScholarship</tspan></text>
<text xml:space="preserve" transform="matrix(1 0 -0 1 0 792)" font-size="9.9626" font-family="SFTI1000" font-style="italic"><tspan y="-367.6291" x="386.024 391.11488 396.20576 399.26429 404.35517 409.44606">$1,000</tspan></text>
<text fill="#404040" xml:space="preserve" transform="matrix(1 0 -0 1 0 792)" font-size="9.9626" font-family="SFRM1000"><tspan y="-367.6291" x="539.186 544.1673 549.1486 554.12997">2021</tspan><tspan y="-351.8571" x="386.024 393.21699 398.74623 403.7275 408.7088 414.79594 421.84947 426.27287 432.36997 438.7261 442.65138 450.40229 461.47074 470.59648 475.2988 483.8766 490.52165 497.43568 502.41697 506.3223 542.5065 547.4878 552.4691 557.45046">Chao,BeiTse&#x0026;MayAward2020</tspan></text>
<text xml:space="preserve" transform="matrix(1 0 -0 1 0 792)" font-size="9.9626" font-family="SFTI1000" font-style="italic"><tspan y="-341.4541" x="386.024 391.11488 396.20576 399.26429 404.35517 409.44606">$6,000</tspan></text>
<text fill="#404040" xml:space="preserve" transform="matrix(1 0 -0 1 0 792)" font-size="9.9626" font-family="SFRM1000"><tspan y="-325.6821" x="386.024 393.7749 401.24687 411.89689 419.22938 423.65278 427.57804 432.00144 436.98274 440.88807 445.04249 453.88926 461.7099 465.61524 470.59654 475.8468 542.5066 547.4879 552.46926 557.45059">OURResearchGrant2020</tspan></text>
<text xml:space="preserve" transform="matrix(1 0 -0 1 0 792)" font-size="9.9626" font-family="SFTI1000" font-style="italic"><tspan y="-317.2151" x="386.024 391.11488 396.20576 399.26429 404.35517 409.44606">$2,500</tspan></text>
<text fill="#404040" xml:space="preserve" transform="matrix(1 0 -0 1 0 792)" font-size="9.9626" font-family="SFRM1000"><tspan y="-301.44309" x="386.024 392.79856 398.3278 403.30909 406.07868 411.6079 416.0313 420.4547 424.36006 427.12965 432.65888 440.9577 448.42967 451.19926 455.1245 457.8941 462.8754 468.40464 473.38594 477.29127 485.87904 491.40827 495.5527 501.08195 506.06324 508.83283 513.81417 517.7195 521.6448 527.174 529.9436 542.49649 547.4778 552.4591 557.4404">EngineeringVisionaryScholarship2019</tspan></text>
<text xml:space="preserve" transform="matrix(1 0 -0 1 0 792)" font-size="9.9626" font-family="SFTI1000" font-style="italic"><tspan y="-291.0401" x="386.024 391.11488 396.20576 401.29664 404.35517 409.44606 414.53694">$24,000</tspan></text>
<text fill="#404040" xml:space="preserve" transform="matrix(1 0 -0 1 0 792)" font-size="9.9626" font-family="SFRM1000"><tspan y="-275.2681" x="386.024 393.49595 397.09245 409.5357 417.00767 419.77726 424.75856 433.6153 440.38987 445.9191 450.9004 453.66999 459.19923 463.62263 468.04603 471.95137 474.72096 480.25019 488.549 496.36967 500.275 505.2563 510.50657 542.5065 547.4878 552.4691 557.45046">AIMHighEngineeringGrant2019</tspan></text>
<text xml:space="preserve" transform="matrix(1 0 -0 1 0 792)" font-size="9.9626" font-family="SFTI1000" font-style="italic"><tspan y="-264.8651" x="386.024 391.11488 396.20576 401.29664 404.35517 409.44606 414.53694">$20,000</tspan></text>
<text fill="#404040" xml:space="preserve" transform="matrix(1 0 -0 1 0 792)" font-size="9.9626" font-family="SFRM1000"><tspan y="-249.09311" x="386.024 393.21699 398.74623 403.7275 409.25675 413.68016 418.10356 420.87315 423.64274 428.62403 432.52937 435.29896 442.54176 448.07099 452.2254 457.75465 462.73594 465.50553 470.48683 542.5065 547.4878 552.4691 557.45046">Chancellor&#x2019;sScholar2019</tspan></text>
<text xml:space="preserve" transform="matrix(1 0 -0 1 0 792)" font-size="9.9626" font-family="SFTI1000" font-style="italic"><tspan y="-240.6271" x="386.024 391.11488 396.20576 399.26429 404.35517 409.44606">$4,000</tspan></text>
<text fill="#404040" xml:space="preserve" transform="matrix(1 0 -0 1 0 792)" font-size="9.9626" font-family="SFRM1000"><tspan y="-224.8551" x="386.024 393.21699 400.40998 410.93049 416.45973 420.88313 425.8644 429.76976 437.51069 442.49198 448.85807 453.83937 458.82066 462.13819 467.11949 472.10078 475.4183 480.3996 485.3809 488.69844 493.67973 542.5064 547.48776 552.46908 557.4504">ACTScoreof36-36-36-362019</tspan></text>
<text fill="#0072bc" xml:space="preserve" transform="matrix(1 0 -0 1 0 792)" font-size="9.9626" font-family="SFBX1000" font-weight="bold"><tspan y="-198.9521" x="386.024 392.39009 401.36637 405.71006 412.6042 419.4983">SKILLS</tspan></text>
<text fill="#404040" xml:space="preserve" transform="matrix(1 0 -0 1 0 792)" font-size="9.9626" font-family="SFBX1000" font-weight="bold"><tspan y="-179.52611" x="386.024 393.85459 399.9019 404.35517 410.72126 416.44975">Python</tspan></text>
<text fill="#404040" xml:space="preserve" transform="matrix(1 0 -0 1 0 792)" font-size="8.9664" font-family="SFRM0900"><tspan y="-179.52611" x="431.978 435.56455 441.57203 446.18077 451.30058 456.42039 461.0291 464.6605 477.05207 482.17189 489.33604 492.4115 498.16795 502.2656 506.87434 510.47883 515.59866 527.9902 534.2577 539.1175 542.70407 547.31277 550.91726 554.76388 559.88369">(Pandas,SK-Learn,Pytorch,</tspan><tspan y="-167.5711" x="386.024 392.93708 398.0569 405.73213 410.5919 414.68955 420.31147 428.7578 433.36656 436.9531 442.0729 444.62834 449.23707 452.8236 455.37904 457.93446 463.05427 468.68516 475.3382 482.56513 489.09266 493.96144 498.57017 502.20155 505.7881 511.41 518.06307 522.67178 526.2583 531.6381 536.49789 541.10659 544.738 548.3245">Numpy,Matplotlib,XGBoost,Catboost)</tspan></text>
<text fill="#404040" xml:space="preserve" transform="matrix(1 0 -0 1 0 792)" font-size="9.9626" font-family="SFBX1000" font-weight="bold"><tspan y="-151.6311" x="386.024 394.29295 397.471 403.1995 409.56559">Cloud</tspan></text>
<text fill="#404040" xml:space="preserve" transform="matrix(1 0 -0 1 0 792)" font-size="8.9664" font-family="SFRM0900"><tspan y="-151.6311" x="423.516 427.10255 434.14118 438.7499 442.33647 446.9452 452.065 455.6695 458.2249 462.06254 466.92234 470.5537 481.11613 489.56248 495.3189 501.33537 503.89079 508.23948 514.8925 525.45498 532.36807 537.48788 541.0744 545.6831 554.12948 559.88589">(Databricks,MLFlow,AutoML,</tspan><tspan y="-139.6761" x="386.024 392.93708 398.0569 402.66563 406.50325 411.62306 420.00666 425.13545 430.25526 434.86399 438.46849 443.32829 450.4655 456.35646 465.82496 475.2307 480.35054 484.95927 492.10548 497.9964 507.4649 516.87069 521.9905 526.5992 531.2079 535.30557 542.9808 547.5895 552.1893 556.2869 559.8914">ApacheSpark,AWSS3,AWSSagemaker,</tspan><tspan y="-127.7211" x="386.024 391.91493 401.38343 409.56974 415.32618 419.9349 427.35908 432.72996 437.84977 442.4585">AWSLambda)</tspan></text>
<text fill="#404040" xml:space="preserve" transform="matrix(1 0 -0 1 0 792)" font-size="9.9626" font-family="SFBX1000" font-weight="bold"><tspan y="-111.7811" x="386.024 394.6815 401.04759 406.61668 409.79475 415.84205 420.29533 423.4734 428.56428">Analytics</tspan></text>
<text fill="#404040" xml:space="preserve" transform="matrix(1 0 -0 1 0 792)" font-size="8.9664" font-family="SFRM0900"><tspan y="-111.7811" x="436.13899 439.72554 446.6386 450.73628 454.06278 460.46479 465.07353 468.678 476.3622 486.35078 491.47059 496.5904 500.1949 505.0547 507.6101 511.95884 516.56759 521.9474 528.8605 533.9803 538.589 541.1444 546.0042 549.59078 552.1462 556.24386 559.87527">(Network&#x0026;SurvivalAnalytics,</tspan><tspan y="-99.825099" x="386.024 391.1438 398.30796 404.0644 412.81559 419.59419 424.2029 429.32273 434.44255 439.05128 452.93125 458.17658 462.7853 466.3898 470.48747 474.11885 477.70539 487.23667 493.88975 496.44517 504.1204 508.21806 511.84944 515.9471 519.5516 522.107 526.20468 529.83609 539.3763 544.4961 551.4092 559.8555">SQL,RandomForest,Timeseries,SVM,</tspan><tspan y="-87.870098" x="386.024 392.2915 398.94459 405.85768 413.1832 419.9618 424.05946 428.66819 432.27268 436.37034 440.0017 443.6331 446.1885 450.79725 455.91706 463.67298 470.83714 477.7502 484.6633 491.98884 497.87977 501.48426 506.093 511.2128 514.8442 517.6596 521.75729 530.1319 542.06619 549.1048 553.20248 557.3001">PCA,Regression,KNN,Transfer&#x0026;Deep</tspan><tspan y="-75.91509" x="386.024 391.78044 395.87809 400.48683 404.0913 409.21113 411.76655 416.88636 421.4951 427.12599 433.00794 436.61244 441.22117 446.34098 449.97236 452.7878 457.39656 461.00105 468.67628 472.77394 476.37843 480.0098">Learning,Transformers)</tspan></text>
</svg>
